<svg xmlns="http://www.w3.org/2000/svg" xmlns:xlink="http://www.w3.org/1999/xlink" viewBox="0 0 500 500"><defs><clipPath id="freepik--clip-path--inject-24"><path d="M79.63,287.15s-1.23,25.76-1.09,32.9.31,9.81,3.85,10.44,17.2,2,21,.62,5-2.6,6.28-4.71,7.3-30.57,8.66-38.56,6.85-93.12,6.85-93.12.21-1.81-3.44-3.42c-3-1.35-17.72-2-22.48-2.16a5,5,0,0,0-5.05,3.68s0,.08,0,.11C93.3,196.6,79.63,287.15,79.63,287.15Z" style="fill:#5B48BC;stroke:#263238;stroke-linecap:round;stroke-linejoin:round"></path></clipPath><clipPath id="freepik--clip-path-2--inject-24"><path d="M107.57,290.14c-4.27,0-22.66-1.94-25.51-2.55a22.36,22.36,0,0,1-2.4-.64l0,.2s-1.23,25.76-1.09,32.9.31,9.81,3.85,10.44,17.2,2,21,.62,5-2.6,6.28-4.71,7-29,8.54-37.86C114.64,290.41,111.08,290.11,107.57,290.14Z" style="fill:#263238;stroke:#263238;stroke-linecap:round;stroke-linejoin:round"></path></clipPath><clipPath id="freepik--clip-path-3--inject-24"><path d="M361.16,449.91l-49.52-85.6s-5.54-38.89-17.35-54.54-28.37-27.07-18.76-35.07,34-23.3,39-22.32,38.66,18,48.17,20.75,12.84,6.79,11.42,15-2,65.78.81,73.73S409,426.47,409,426.47" style="fill:#fff;stroke:#263238;stroke-linecap:round;stroke-miterlimit:10"></path></clipPath><clipPath id="freepik--clip-path-4--inject-24"><path d="M333.94,306.44s-11.34,2.66-16.41,1.46S302.11,292.14,295,287.35s-11.44-5.93-18.88-7.05-12.58,2.47-11,9.28,10.23,15.06,16.54,20.52,12.33,14.8,16.07,25.65,6.08,20.82,14.4,31.78,18.7,15.47,22.19,16.08" style="fill:#fff;stroke:#263238;stroke-linecap:round;stroke-miterlimit:10"></path></clipPath><clipPath id="freepik--clip-path-5--inject-24"><path d="M374,285.55l1.36-4.39c1.36-4.38.33-10.84-3.4-14.51s-17-10.13-20.88-13.52S318.16,229,313,230.27s-11.37,8.65-16.63,12.75-24.12,19.54-24.12,19.54S259,268.3,259.6,271s3.35,6.15,11.66,5.88,22.16-8.55,24.26-9.77,15.17-9.78,15.17-9.78a45.78,45.78,0,0,0,11.52,8.3c6.17,2.86,7,3.15,7,3.15s1.61,5.85,6.14,8.85" style="fill:#fff;stroke:#263238;stroke-linecap:round;stroke-miterlimit:10"></path></clipPath></defs><g id="freepik--background-simple--inject-24"><path d="M377.7,228.66s3.47-11.75,15.24-36.61c16.11-34-7.05-72.26-52.94-92.21-53.8-23.37-123-14.66-172.91-.38-41.26,11.82-58.31,42.68-65.73,73.44-3.77,15.59-4.48,31.53-6.86,47.33-3.16,21.06-10.06,42.45-16.1,63.08-7.29,24.92-14.53,53.06-4.23,80,31.73,82.86,206.09,86.44,274.7,48.09,38.79-21.67,53.08-53.54,40-90.73C379.16,293.12,369.74,255.52,377.7,228.66Z" style="fill:#5B48BC"></path><path d="M377.7,228.66s3.47-11.75,15.24-36.61c16.11-34-7.05-72.26-52.94-92.21-53.8-23.37-123-14.66-172.91-.38-41.26,11.82-58.31,42.68-65.73,73.44-3.77,15.59-4.48,31.53-6.86,47.33-3.16,21.06-10.06,42.45-16.1,63.08-7.29,24.92-14.53,53.06-4.23,80,31.73,82.86,206.09,86.44,274.7,48.09,38.79-21.67,53.08-53.54,40-90.73C379.16,293.12,369.74,255.52,377.7,228.66Z" style="fill:#fff;opacity:0.7000000000000001"></path></g><g id="freepik--Notebook--inject-24"><path d="M334.92,156.19a1,1,0,1,0-.29-1.89l-3.79.59-.11-.72,3.79-.59a1,1,0,0,0-.29-1.89l-3.8.6-.81-5.23-11.38-10.28-149.07,274,11.42,7.72L367.33,389.4,365.25,376l3.79-.59a1,1,0,1,0-.29-1.88l-3.8.59-.11-.73,3.8-.59a.94.94,0,0,0,.79-1.08,1,1,0,0,0-1.09-.8l-3.79.59-1.1-7.05,3.8-.59A1,1,0,0,0,367,362l-3.79.59-.11-.72,3.79-.59a1,1,0,0,0-.29-1.89l-3.8.59-1.09-7,3.79-.6a.93.93,0,0,0,.79-1.08,1,1,0,0,0-1.08-.8l-3.8.59-.11-.72,3.79-.59a1,1,0,0,0-.29-1.89l-3.79.59-1.1-7,3.79-.59a1,1,0,0,0-.29-1.89l-3.79.59-.12-.72,3.8-.59a1,1,0,0,0,.79-1.09.93.93,0,0,0-1.08-.79l-3.8.59-1.09-7,3.79-.59a1,1,0,0,0,.79-1.09.93.93,0,0,0-1.08-.79l-3.8.59-.11-.73,3.79-.59a1,1,0,1,0-.29-1.88l-3.79.59-1.1-7.05,3.79-.59a1,1,0,1,0-.29-1.88l-3.79.59-.12-.73,3.8-.59a1,1,0,1,0-.3-1.88l-3.79.59-1.1-7.05,3.8-.59a1,1,0,1,0-.3-1.88l-3.79.59-.11-.73,3.79-.59a1,1,0,0,0,.8-1.08,1,1,0,0,0-1.09-.8l-3.8.59-1.09-7,3.79-.59a1,1,0,0,0,.8-1.08,1,1,0,0,0-1.09-.8l-3.79.59-.12-.72,3.8-.59a1,1,0,0,0-.3-1.89l-3.79.59-1.1-7,3.8-.59a1,1,0,0,0-.3-1.89l-3.79.59-.11-.72,3.79-.59a1,1,0,0,0-.29-1.89l-3.8.6-1.09-7,3.79-.59a1,1,0,0,0-.29-1.89l-3.8.59-.11-.72,3.79-.59a1,1,0,1,0-.29-1.88l-3.79.59-1.1-7.05,3.79-.59a1,1,0,1,0-.29-1.88l-3.79.59-.11-.73,3.79-.59a1,1,0,0,0-.29-1.88l-3.8.59-1.09-7,3.79-.59a1,1,0,0,0-.29-1.88l-3.8.59-.11-.73,3.79-.59a1,1,0,0,0,.8-1.08,1,1,0,0,0-1.09-.8l-3.79.59-1.1-7.05,3.79-.59a1,1,0,1,0-.29-1.88l-3.79.59-.12-.72,3.8-.59a1,1,0,0,0-.3-1.89l-3.79.59-1.1-7,3.8-.6a1,1,0,0,0-.29-1.88l-3.8.59-.11-.72,3.79-.59a1,1,0,0,0-.29-1.89l-3.79.59-1.1-7,3.79-.59a1,1,0,1,0-.29-1.89l-3.79.59-.12-.72,3.8-.59a1,1,0,1,0-.3-1.88l-3.79.59-1.1-7,3.8-.59a1,1,0,0,0-.3-1.88l-3.79.59-.11-.73,3.79-.59a1,1,0,1,0-.29-1.88l-3.8.59-1.09-7.05,3.79-.59a1,1,0,1,0-.29-1.88l-3.8.59-.11-.73,3.8-.59a1,1,0,0,0-.3-1.88l-3.79.59-1.1-7.05,3.8-.59a1,1,0,0,0-.3-1.88l-3.79.59-.11-.73,3.79-.59a1,1,0,0,0,.8-1.08,1,1,0,0,0-1.09-.8l-3.8.59-1.09-7.05,3.79-.59a1,1,0,0,0,.8-1.08,1,1,0,0,0-1.09-.8l-3.8.59-.11-.72,3.79-.59a1,1,0,0,0-.29-1.89l-3.79.59-1.1-7Z" style="opacity:0.30000000000000004"></path><path d="M175.2,413.39l173.15-26.94L309.71,138.1l-173.16,27a8.09,8.09,0,0,0-6.75,9.24L166,406.64A8.08,8.08,0,0,0,175.2,413.39Z" style="fill:#263238;stroke:#263238;stroke-linecap:round;stroke-miterlimit:10"></path><path d="M163.73,377.93h10a2.65,2.65,0,0,1,2.65,2.65v22.6a2.65,2.65,0,0,1-2.65,2.65h-10a0,0,0,0,1,0,0v-27.9A0,0,0,0,1,163.73,377.93Z" transform="translate(398.34 752.95) rotate(171.15)" style="fill:#fff;stroke:#263238;stroke-linecap:round;stroke-miterlimit:10"></path><path d="M159.22,348.94h10a2.65,2.65,0,0,1,2.65,2.65v22.6a2.65,2.65,0,0,1-2.65,2.65h-10a0,0,0,0,1,0,0v-27.9A0,0,0,0,1,159.22,348.94Z" transform="translate(384.92 696.02) rotate(171.15)" style="fill:#5B48BC;stroke:#263238;stroke-linecap:round;stroke-miterlimit:10"></path><path d="M154.71,320h10a2.65,2.65,0,0,1,2.65,2.65v22.6a2.65,2.65,0,0,1-2.65,2.65h-10a0,0,0,0,1,0,0V320A0,0,0,0,1,154.71,320Z" transform="translate(371.49 639.09) rotate(171.15)" style="fill:#fff;stroke:#263238;stroke-linecap:round;stroke-miterlimit:10"></path><path d="M150.2,291h10a2.65,2.65,0,0,1,2.65,2.65v22.6a2.65,2.65,0,0,1-2.65,2.65h-10a0,0,0,0,1,0,0V291a0,0,0,0,1,0,0Z" transform="translate(358.07 582.16) rotate(171.15)" style="fill:#5B48BC;stroke:#263238;stroke-linecap:round;stroke-miterlimit:10"></path><path d="M146.24,262.72l5.91-.92L137.08,165l181.16-28.19,38.64,248.34L175.73,413.31,156.44,289.37l-5.91.92a2.64,2.64,0,0,1-3-2.21L144,265.75A2.65,2.65,0,0,1,146.24,262.72Z" style="fill:#fff;stroke:#263238;stroke-linecap:round;stroke-miterlimit:10"></path><polygon points="165.61 217.88 166.21 231.45 233.81 220.42 232.04 209.06 165.61 217.88" style="fill:#5B48BC"></polygon><path d="M308.17,152a3.54,3.54,0,1,0,2.95-4A3.54,3.54,0,0,0,308.17,152Z" style="fill:#263238;stroke:#263238;stroke-linecap:round;stroke-miterlimit:10"></path><path d="M312,150.9l10.58-1.65a1,1,0,0,0,.79-1.09h0a1,1,0,0,0-1.09-.79L311.74,149a1,1,0,0,0-.8,1.09h0A1,1,0,0,0,312,150.9Z" style="fill:#fff;stroke:#263238;stroke-linecap:round;stroke-miterlimit:10"></path><path d="M312.44,153.5,323,151.86a1,1,0,0,0,.8-1.09h0a1,1,0,0,0-1.09-.8l-10.58,1.65a1,1,0,0,0-.79,1.09h0A1,1,0,0,0,312.44,153.5Z" style="fill:#fff;stroke:#263238;stroke-linecap:round;stroke-miterlimit:10"></path><path d="M310,163.53a3.54,3.54,0,1,0,3-4A3.54,3.54,0,0,0,310,163.53Z" style="fill:#263238;stroke:#263238;stroke-linecap:round;stroke-miterlimit:10"></path><path d="M313.83,162.43l10.57-1.64a1,1,0,0,0,.8-1.09h0a1,1,0,0,0-1.09-.8l-10.58,1.65a1,1,0,0,0-.79,1.09h0A1,1,0,0,0,313.83,162.43Z" style="fill:#fff;stroke:#263238;stroke-linecap:round;stroke-miterlimit:10"></path><path d="M314.23,165l10.58-1.64a1,1,0,0,0,.79-1.09h0a1,1,0,0,0-1.09-.8l-10.57,1.65a1,1,0,0,0-.8,1.09h0A1,1,0,0,0,314.23,165Z" style="fill:#fff;stroke:#263238;stroke-linecap:round;stroke-miterlimit:10"></path><path d="M311.76,175.07a3.54,3.54,0,1,0,2.95-4A3.54,3.54,0,0,0,311.76,175.07Z" style="fill:#263238;stroke:#263238;stroke-linecap:round;stroke-miterlimit:10"></path><path d="M315.62,174l10.58-1.64a1,1,0,0,0,.79-1.09h0a1,1,0,0,0-1.09-.8l-10.57,1.65a1,1,0,0,0-.8,1.09h0A1,1,0,0,0,315.62,174Z" style="fill:#fff;stroke:#263238;stroke-linecap:round;stroke-miterlimit:10"></path><path d="M316,176.58l10.57-1.65a1,1,0,0,0,.8-1.08h0a1,1,0,0,0-1.09-.8l-10.57,1.65a1,1,0,0,0-.8,1.08h0A1,1,0,0,0,316,176.58Z" style="fill:#fff;stroke:#263238;stroke-linecap:round;stroke-miterlimit:10"></path><path d="M313.55,186.61a3.54,3.54,0,1,0,3-4A3.54,3.54,0,0,0,313.55,186.61Z" style="fill:#263238;stroke:#263238;stroke-linecap:round;stroke-miterlimit:10"></path><path d="M317.42,185.51,328,183.86a1,1,0,0,0,.8-1.08h0a1,1,0,0,0-1.09-.8l-10.58,1.65a.94.94,0,0,0-.79,1.08h0A1,1,0,0,0,317.42,185.51Z" style="fill:#fff;stroke:#263238;stroke-linecap:round;stroke-miterlimit:10"></path><path d="M317.82,188.12l10.58-1.65a.94.94,0,0,0,.79-1.09h0a.94.94,0,0,0-1.08-.79l-10.58,1.64a1,1,0,0,0-.79,1.09h0A1,1,0,0,0,317.82,188.12Z" style="fill:#fff;stroke:#263238;stroke-linecap:round;stroke-miterlimit:10"></path><path d="M315.35,198.15a3.54,3.54,0,1,0,2.95-4A3.54,3.54,0,0,0,315.35,198.15Z" style="fill:#263238;stroke:#263238;stroke-linecap:round;stroke-miterlimit:10"></path><path d="M319.21,197.05l10.58-1.65a1,1,0,0,0,.79-1.09h0a.94.94,0,0,0-1.08-.79l-10.58,1.64a1,1,0,0,0-.79,1.09h0A1,1,0,0,0,319.21,197.05Z" style="fill:#fff;stroke:#263238;stroke-linecap:round;stroke-miterlimit:10"></path><path d="M319.62,199.66,330.19,198a1,1,0,0,0,.8-1.09h0a1,1,0,0,0-1.09-.79l-10.57,1.64a1,1,0,0,0-.8,1.09h0A1,1,0,0,0,319.62,199.66Z" style="fill:#fff;stroke:#263238;stroke-linecap:round;stroke-miterlimit:10"></path><path d="M317.14,209.69a3.54,3.54,0,1,0,3-4.05A3.54,3.54,0,0,0,317.14,209.69Z" style="fill:#263238;stroke:#263238;stroke-linecap:round;stroke-miterlimit:10"></path><path d="M321,208.59l10.57-1.65a1,1,0,0,0,.8-1.09h0a1,1,0,0,0-1.09-.79l-10.57,1.64a1,1,0,0,0-.8,1.09h0A1,1,0,0,0,321,208.59Z" style="fill:#fff;stroke:#263238;stroke-linecap:round;stroke-miterlimit:10"></path><path d="M321.42,211.19,332,209.55a1,1,0,0,0,.8-1.09h0a1,1,0,0,0-1.09-.8l-10.58,1.65a1,1,0,0,0-.79,1.09h0A1,1,0,0,0,321.42,211.19Z" style="fill:#fff;stroke:#263238;stroke-linecap:round;stroke-miterlimit:10"></path><path d="M318.94,221.22a3.54,3.54,0,1,0,2.95-4A3.54,3.54,0,0,0,318.94,221.22Z" style="fill:#263238;stroke:#263238;stroke-linecap:round;stroke-miterlimit:10"></path><path d="M322.8,220.12l10.58-1.64a1,1,0,0,0,.8-1.09h0a1,1,0,0,0-1.09-.79l-10.58,1.64a1,1,0,0,0-.79,1.09h0A.93.93,0,0,0,322.8,220.12Z" style="fill:#fff;stroke:#263238;stroke-linecap:round;stroke-miterlimit:10"></path><path d="M323.21,222.73l10.58-1.64a1,1,0,0,0,.79-1.09h0a1,1,0,0,0-1.09-.8l-10.57,1.65a1,1,0,0,0-.8,1.09h0A1,1,0,0,0,323.21,222.73Z" style="fill:#fff;stroke:#263238;stroke-linecap:round;stroke-miterlimit:10"></path><path d="M320.74,232.76a3.54,3.54,0,1,0,2.95-4A3.54,3.54,0,0,0,320.74,232.76Z" style="fill:#263238;stroke:#263238;stroke-linecap:round;stroke-miterlimit:10"></path><path d="M324.6,231.66,335.18,230a1,1,0,0,0,.79-1.09h0a1,1,0,0,0-1.09-.8l-10.57,1.65a1,1,0,0,0-.8,1.09h0A1,1,0,0,0,324.6,231.66Z" style="fill:#fff;stroke:#263238;stroke-linecap:round;stroke-miterlimit:10"></path><path d="M325,234.27l10.57-1.65a1,1,0,0,0,.8-1.08h0a1,1,0,0,0-1.09-.8l-10.58,1.65a1,1,0,0,0-.79,1.09h0A1,1,0,0,0,325,234.27Z" style="fill:#fff;stroke:#263238;stroke-linecap:round;stroke-miterlimit:10"></path><path d="M322.53,244.3a3.54,3.54,0,1,0,3-4A3.54,3.54,0,0,0,322.53,244.3Z" style="fill:#263238;stroke:#263238;stroke-linecap:round;stroke-miterlimit:10"></path><path d="M326.4,243.2,337,241.56a1,1,0,0,0,.8-1.09h0a1,1,0,0,0-1.09-.8l-10.58,1.65a1,1,0,0,0-.79,1.09h0A1,1,0,0,0,326.4,243.2Z" style="fill:#fff;stroke:#263238;stroke-linecap:round;stroke-miterlimit:10"></path><path d="M326.8,245.81l10.58-1.65a1,1,0,0,0,.79-1.09h0a1,1,0,0,0-1.09-.79l-10.57,1.65a1,1,0,0,0-.8,1.08h0A1,1,0,0,0,326.8,245.81Z" style="fill:#fff;stroke:#263238;stroke-linecap:round;stroke-miterlimit:10"></path><path d="M324.33,255.84a3.54,3.54,0,1,0,2.95-4A3.54,3.54,0,0,0,324.33,255.84Z" style="fill:#263238;stroke:#263238;stroke-linecap:round;stroke-miterlimit:10"></path><path d="M328.19,254.74l10.58-1.65a1,1,0,0,0,.79-1.09h0a1,1,0,0,0-1.09-.79l-10.57,1.65a1,1,0,0,0-.8,1.08h0A1,1,0,0,0,328.19,254.74Z" style="fill:#fff;stroke:#263238;stroke-linecap:round;stroke-miterlimit:10"></path><path d="M328.6,257.35l10.57-1.65a1,1,0,0,0,.8-1.09h0a1,1,0,0,0-1.09-.79l-10.58,1.64a1,1,0,0,0-.79,1.09h0A1,1,0,0,0,328.6,257.35Z" style="fill:#fff;stroke:#263238;stroke-linecap:round;stroke-miterlimit:10"></path><path d="M326.12,267.38a3.54,3.54,0,1,0,3-4.05A3.54,3.54,0,0,0,326.12,267.38Z" style="fill:#263238;stroke:#263238;stroke-linecap:round;stroke-miterlimit:10"></path><path d="M330,266.28l10.57-1.65a1,1,0,0,0,.8-1.09h0a1,1,0,0,0-1.09-.79l-10.58,1.64a1,1,0,0,0-.79,1.09h0A1,1,0,0,0,330,266.28Z" style="fill:#fff;stroke:#263238;stroke-linecap:round;stroke-miterlimit:10"></path><path d="M330.39,268.88,341,267.24a1,1,0,0,0,.79-1.09h0a.93.93,0,0,0-1.08-.79L330.1,267a1,1,0,0,0-.8,1.09h0A1,1,0,0,0,330.39,268.88Z" style="fill:#fff;stroke:#263238;stroke-linecap:round;stroke-miterlimit:10"></path><path d="M327.92,278.91a3.54,3.54,0,1,0,2.95-4A3.54,3.54,0,0,0,327.92,278.91Z" style="fill:#263238;stroke:#263238;stroke-linecap:round;stroke-miterlimit:10"></path><path d="M331.78,277.82l10.58-1.65a1,1,0,0,0,.79-1.09h0a1,1,0,0,0-1.08-.79l-10.58,1.64a1,1,0,0,0-.8,1.09h0A1,1,0,0,0,331.78,277.82Z" style="fill:#fff;stroke:#263238;stroke-linecap:round;stroke-miterlimit:10"></path><path d="M332.19,280.42l10.57-1.64a1,1,0,0,0,.8-1.09h0a1,1,0,0,0-1.09-.8l-10.57,1.65a1,1,0,0,0-.8,1.09h0A1,1,0,0,0,332.19,280.42Z" style="fill:#fff;stroke:#263238;stroke-linecap:round;stroke-miterlimit:10"></path><path d="M329.71,290.45a3.54,3.54,0,1,0,3-4A3.55,3.55,0,0,0,329.71,290.45Z" style="fill:#263238;stroke:#263238;stroke-linecap:round;stroke-miterlimit:10"></path><path d="M333.58,289.35l10.57-1.64a1,1,0,0,0,.8-1.09h0a1,1,0,0,0-1.09-.8l-10.57,1.65a1,1,0,0,0-.8,1.09h0A1,1,0,0,0,333.58,289.35Z" style="fill:#fff;stroke:#263238;stroke-linecap:round;stroke-miterlimit:10"></path><path d="M334,292l10.58-1.64a1,1,0,0,0,.79-1.09h0a1,1,0,0,0-1.08-.8l-10.58,1.65a1,1,0,0,0-.79,1.09h0A.94.94,0,0,0,334,292Z" style="fill:#fff;stroke:#263238;stroke-linecap:round;stroke-miterlimit:10"></path><path d="M331.51,302a3.54,3.54,0,1,0,2.95-4A3.54,3.54,0,0,0,331.51,302Z" style="fill:#263238;stroke:#263238;stroke-linecap:round;stroke-miterlimit:10"></path><path d="M335.37,300.89,346,299.25a.94.94,0,0,0,.79-1.09h0a1,1,0,0,0-1.08-.8L335.08,299a.94.94,0,0,0-.79,1.09h0A.94.94,0,0,0,335.37,300.89Z" style="fill:#fff;stroke:#263238;stroke-linecap:round;stroke-miterlimit:10"></path><path d="M335.78,303.5l10.57-1.65a.94.94,0,0,0,.8-1.08h0a1,1,0,0,0-1.09-.8l-10.57,1.65a1,1,0,0,0-.8,1.08h0A1,1,0,0,0,335.78,303.5Z" style="fill:#fff;stroke:#263238;stroke-linecap:round;stroke-miterlimit:10"></path><path d="M333.3,313.53a3.54,3.54,0,1,0,3-4A3.55,3.55,0,0,0,333.3,313.53Z" style="fill:#263238;stroke:#263238;stroke-linecap:round;stroke-miterlimit:10"></path><path d="M337.17,312.43l10.57-1.65a1,1,0,0,0,.8-1.08h0a1,1,0,0,0-1.09-.8l-10.57,1.65a1,1,0,0,0-.8,1.08h0A1,1,0,0,0,337.17,312.43Z" style="fill:#fff;stroke:#263238;stroke-linecap:round;stroke-miterlimit:10"></path><path d="M337.58,315l10.57-1.65a1,1,0,0,0,.8-1.09h0a1,1,0,0,0-1.09-.79l-10.58,1.64a1,1,0,0,0-.79,1.09h0A1,1,0,0,0,337.58,315Z" style="fill:#fff;stroke:#263238;stroke-linecap:round;stroke-miterlimit:10"></path><path d="M335.1,325.07a3.54,3.54,0,1,0,2.95-4A3.54,3.54,0,0,0,335.1,325.07Z" style="fill:#263238;stroke:#263238;stroke-linecap:round;stroke-miterlimit:10"></path><path d="M339,324l10.57-1.65a1,1,0,0,0,.8-1.09h0a1,1,0,0,0-1.09-.79l-10.58,1.64a1,1,0,0,0-.79,1.09h0A1,1,0,0,0,339,324Z" style="fill:#fff;stroke:#263238;stroke-linecap:round;stroke-miterlimit:10"></path><path d="M339.37,326.58,350,324.93a1,1,0,0,0,.79-1.09h0a1,1,0,0,0-1.09-.79l-10.57,1.64a1,1,0,0,0-.8,1.09h0A1,1,0,0,0,339.37,326.58Z" style="fill:#fff;stroke:#263238;stroke-linecap:round;stroke-miterlimit:10"></path><path d="M336.9,336.61a3.54,3.54,0,1,0,3-4.05A3.54,3.54,0,0,0,336.9,336.61Z" style="fill:#263238;stroke:#263238;stroke-linecap:round;stroke-miterlimit:10"></path><path d="M340.76,335.51l10.58-1.65a1,1,0,0,0,.79-1.09h0A1,1,0,0,0,351,332l-10.57,1.64a1,1,0,0,0-.8,1.09h0A1,1,0,0,0,340.76,335.51Z" style="fill:#fff;stroke:#263238;stroke-linecap:round;stroke-miterlimit:10"></path><path d="M341.17,338.11l10.57-1.64a1,1,0,0,0,.8-1.09h0a1,1,0,0,0-1.09-.8l-10.58,1.65a1,1,0,0,0-.79,1.09h0A1,1,0,0,0,341.17,338.11Z" style="fill:#fff;stroke:#263238;stroke-linecap:round;stroke-miterlimit:10"></path><path d="M338.69,348.14a3.54,3.54,0,1,0,2.95-4A3.54,3.54,0,0,0,338.69,348.14Z" style="fill:#263238;stroke:#263238;stroke-linecap:round;stroke-miterlimit:10"></path><path d="M342.56,347l10.57-1.64a1,1,0,0,0,.8-1.09h0a.94.94,0,0,0-1.09-.79l-10.58,1.64a1,1,0,0,0-.79,1.09h0A.94.94,0,0,0,342.56,347Z" style="fill:#fff;stroke:#263238;stroke-linecap:round;stroke-miterlimit:10"></path><path d="M343,349.65,353.54,348a1,1,0,0,0,.79-1.09h0a1,1,0,0,0-1.09-.8l-10.57,1.65a1,1,0,0,0-.8,1.09h0A1,1,0,0,0,343,349.65Z" style="fill:#fff;stroke:#263238;stroke-linecap:round;stroke-miterlimit:10"></path><path d="M340.49,359.68a3.54,3.54,0,1,0,2.95-4A3.54,3.54,0,0,0,340.49,359.68Z" style="fill:#263238;stroke:#263238;stroke-linecap:round;stroke-miterlimit:10"></path><path d="M344.35,358.58l10.58-1.64a1,1,0,0,0,.79-1.09h0a1,1,0,0,0-1.09-.8l-10.57,1.65a1,1,0,0,0-.8,1.09h0A1,1,0,0,0,344.35,358.58Z" style="fill:#fff;stroke:#263238;stroke-linecap:round;stroke-miterlimit:10"></path><path d="M344.76,361.19l10.57-1.65a1,1,0,0,0,.8-1.08h0a1,1,0,0,0-1.09-.8l-10.58,1.65a1,1,0,0,0-.79,1.09h0A1,1,0,0,0,344.76,361.19Z" style="fill:#fff;stroke:#263238;stroke-linecap:round;stroke-miterlimit:10"></path><path d="M342.28,371.22a3.54,3.54,0,1,0,3-4A3.54,3.54,0,0,0,342.28,371.22Z" style="fill:#263238;stroke:#263238;stroke-linecap:round;stroke-miterlimit:10"></path><path d="M346.15,370.12l10.57-1.64a1,1,0,0,0,.8-1.09h0a1,1,0,0,0-1.09-.8l-10.58,1.65a1,1,0,0,0-.79,1.09h0A1,1,0,0,0,346.15,370.12Z" style="fill:#fff;stroke:#263238;stroke-linecap:round;stroke-miterlimit:10"></path><path d="M346.55,372.73l10.58-1.65a1,1,0,0,0,.79-1.09h0a.94.94,0,0,0-1.08-.79l-10.58,1.65a.93.93,0,0,0-.79,1.08h0A1,1,0,0,0,346.55,372.73Z" style="fill:#fff;stroke:#263238;stroke-linecap:round;stroke-miterlimit:10"></path><g style="opacity:0.30000000000000004"><line x1="191.08" y1="175.51" x2="193.71" y2="175.11" style="fill:none;stroke:#000;stroke-linecap:round;stroke-miterlimit:10"></line><line x1="196.34" y1="174.7" x2="198.97" y2="174.29" style="fill:none;stroke:#000;stroke-linecap:round;stroke-miterlimit:10"></line><line x1="165.38" y1="183.22" x2="168" y2="182.81" style="fill:none;stroke:#000;stroke-linecap:round;stroke-miterlimit:10"></line><line x1="170.63" y1="182.4" x2="173.26" y2="181.99" style="fill:none;stroke:#000;stroke-linecap:round;stroke-miterlimit:10"></line><line x1="175.89" y1="181.59" x2="178.51" y2="181.18" style="fill:none;stroke:#000;stroke-linecap:round;stroke-miterlimit:10"></line><line x1="181.14" y1="180.77" x2="183.77" y2="180.36" style="fill:none;stroke:#000;stroke-linecap:round;stroke-miterlimit:10"></line><line x1="186.39" y1="179.95" x2="189.02" y2="179.54" style="fill:none;stroke:#000;stroke-linecap:round;stroke-miterlimit:10"></line><line x1="191.65" y1="179.13" x2="194.27" y2="178.72" style="fill:none;stroke:#000;stroke-linecap:round;stroke-miterlimit:10"></line><line x1="196.9" y1="178.31" x2="199.53" y2="177.91" style="fill:none;stroke:#000;stroke-linecap:round;stroke-miterlimit:10"></line><line x1="165.94" y1="186.84" x2="168.57" y2="186.43" style="fill:none;stroke:#000;stroke-linecap:round;stroke-miterlimit:10"></line><line x1="171.19" y1="186.02" x2="173.82" y2="185.61" style="fill:none;stroke:#000;stroke-linecap:round;stroke-miterlimit:10"></line><line x1="176.45" y1="185.2" x2="179.08" y2="184.8" style="fill:none;stroke:#000;stroke-linecap:round;stroke-miterlimit:10"></line><line x1="181.7" y1="184.39" x2="184.33" y2="183.98" style="fill:none;stroke:#000;stroke-linecap:round;stroke-miterlimit:10"></line><line x1="186.96" y1="183.57" x2="189.58" y2="183.16" style="fill:none;stroke:#000;stroke-linecap:round;stroke-miterlimit:10"></line><line x1="192.21" y1="182.75" x2="194.84" y2="182.34" style="fill:none;stroke:#000;stroke-linecap:round;stroke-miterlimit:10"></line><line x1="197.46" y1="181.93" x2="200.09" y2="181.52" style="fill:none;stroke:#000;stroke-linecap:round;stroke-miterlimit:10"></line><line x1="166.5" y1="190.46" x2="169.13" y2="190.05" style="fill:none;stroke:#000;stroke-linecap:round;stroke-miterlimit:10"></line><line x1="171.76" y1="189.64" x2="174.38" y2="189.23" style="fill:none;stroke:#000;stroke-linecap:round;stroke-miterlimit:10"></line><line x1="177.01" y1="188.82" x2="179.64" y2="188.41" style="fill:none;stroke:#000;stroke-linecap:round;stroke-miterlimit:10"></line><line x1="182.27" y1="188.01" x2="184.89" y2="187.6" style="fill:none;stroke:#000;stroke-linecap:round;stroke-miterlimit:10"></line><line x1="187.52" y1="187.19" x2="190.15" y2="186.78" style="fill:none;stroke:#000;stroke-linecap:round;stroke-miterlimit:10"></line><line x1="192.77" y1="186.37" x2="195.4" y2="185.96" style="fill:none;stroke:#000;stroke-linecap:round;stroke-miterlimit:10"></line><line x1="198.03" y1="185.55" x2="200.65" y2="185.14" style="fill:none;stroke:#000;stroke-linecap:round;stroke-miterlimit:10"></line><line x1="167.07" y1="194.08" x2="169.69" y2="193.67" style="fill:none;stroke:#000;stroke-linecap:round;stroke-miterlimit:10"></line><line x1="172.32" y1="193.26" x2="174.95" y2="192.85" style="fill:none;stroke:#000;stroke-linecap:round;stroke-miterlimit:10"></line><line x1="177.57" y1="192.44" x2="180.2" y2="192.03" style="fill:none;stroke:#000;stroke-linecap:round;stroke-miterlimit:10"></line><line x1="182.83" y1="191.62" x2="185.46" y2="191.22" style="fill:none;stroke:#000;stroke-linecap:round;stroke-miterlimit:10"></line><line x1="188.08" y1="190.81" x2="190.71" y2="190.4" style="fill:none;stroke:#000;stroke-linecap:round;stroke-miterlimit:10"></line><line x1="193.34" y1="189.99" x2="195.96" y2="189.58" style="fill:none;stroke:#000;stroke-linecap:round;stroke-miterlimit:10"></line><line x1="198.59" y1="189.17" x2="201.22" y2="188.76" style="fill:none;stroke:#000;stroke-linecap:round;stroke-miterlimit:10"></line><line x1="164.07" y1="174.85" x2="166.7" y2="174.44" style="fill:none;stroke:#000;stroke-linecap:round;stroke-miterlimit:10"></line><line x1="169.33" y1="174.03" x2="171.96" y2="173.63" style="fill:none;stroke:#000;stroke-linecap:round;stroke-miterlimit:10"></line><line x1="174.58" y1="173.22" x2="177.21" y2="172.81" style="fill:none;stroke:#000;stroke-linecap:round;stroke-miterlimit:10"></line><line x1="179.84" y1="172.4" x2="182.46" y2="171.99" style="fill:none;stroke:#000;stroke-linecap:round;stroke-miterlimit:10"></line><line x1="185.09" y1="171.58" x2="187.72" y2="171.17" style="fill:none;stroke:#000;stroke-linecap:round;stroke-miterlimit:10"></line><line x1="190.35" y1="170.76" x2="192.97" y2="170.36" style="fill:none;stroke:#000;stroke-linecap:round;stroke-miterlimit:10"></line><line x1="195.6" y1="169.95" x2="198.23" y2="169.54" style="fill:none;stroke:#000;stroke-linecap:round;stroke-miterlimit:10"></line><line x1="198.77" y1="171.54" x2="164.17" y2="176.92" style="fill:none;stroke:#000;stroke-linecap:round;stroke-miterlimit:10"></line><line x1="173.77" y1="168.71" x2="187.12" y2="166.63" style="fill:none;stroke:#000;stroke-linecap:round;stroke-miterlimit:10"></line><line x1="157.19" y1="206.03" x2="304.42" y2="183.12" style="fill:none;stroke:#000;stroke-linecap:round;stroke-miterlimit:10"></line><line x1="159.04" y1="217.89" x2="306.26" y2="194.98" style="fill:none;stroke:#000;stroke-linecap:round;stroke-miterlimit:10"></line><line x1="160.88" y1="229.74" x2="308.11" y2="206.83" style="fill:none;stroke:#000;stroke-linecap:round;stroke-miterlimit:10"></line><line x1="162.73" y1="241.6" x2="309.95" y2="218.69" style="fill:none;stroke:#000;stroke-linecap:round;stroke-miterlimit:10"></line><line x1="164.57" y1="253.46" x2="311.8" y2="230.55" style="fill:none;stroke:#000;stroke-linecap:round;stroke-miterlimit:10"></line><line x1="166.42" y1="265.32" x2="313.64" y2="242.4" style="fill:none;stroke:#000;stroke-linecap:round;stroke-miterlimit:10"></line><line x1="168.26" y1="277.17" x2="315.49" y2="254.26" style="fill:none;stroke:#000;stroke-linecap:round;stroke-miterlimit:10"></line><line x1="170.11" y1="289.03" x2="317.33" y2="266.12" style="fill:none;stroke:#000;stroke-linecap:round;stroke-miterlimit:10"></line><line x1="171.95" y1="300.89" x2="319.18" y2="277.98" style="fill:none;stroke:#000;stroke-linecap:round;stroke-miterlimit:10"></line><line x1="173.8" y1="312.75" x2="321.02" y2="289.83" style="fill:none;stroke:#000;stroke-linecap:round;stroke-miterlimit:10"></line><line x1="175.64" y1="324.6" x2="322.87" y2="301.69" style="fill:none;stroke:#000;stroke-linecap:round;stroke-miterlimit:10"></line><line x1="177.49" y1="336.46" x2="324.72" y2="313.55" style="fill:none;stroke:#000;stroke-linecap:round;stroke-miterlimit:10"></line><line x1="179.33" y1="348.32" x2="326.56" y2="325.41" style="fill:none;stroke:#000;stroke-linecap:round;stroke-miterlimit:10"></line><line x1="183.72" y1="376.48" x2="330.94" y2="353.57" style="fill:none;stroke:#000;stroke-linecap:round;stroke-miterlimit:10"></line><line x1="185.18" y1="385.87" x2="332.4" y2="362.95" style="fill:none;stroke:#000;stroke-linecap:round;stroke-miterlimit:10"></line><line x1="186.64" y1="395.25" x2="333.86" y2="372.34" style="fill:none;stroke:#000;stroke-linecap:round;stroke-miterlimit:10"></line></g><path d="M178.19,217.44s-12.56,13.59-5.3,11.45,17.19-16.34,15.08-10.44-2,9.92,1.41,5.85,5.32-4.88,4.63-2.75,2.13.68,2.13.68,7-4.12,6.27-2-1.17,2.21.81,1.9l6.42-1s-.42.58,5.51-.35,8.24-2.29,11.21-2.75" style="fill:none;stroke:#263238;stroke-linecap:round;stroke-miterlimit:10"></path><path d="M172.49,236s9.68-6.06,10.9-4.73-.45,3.61,3.92,2.43,8.35-4.84,8.66-2.87,3.12.53,3.12.53l2.47-.39s4.52-.19,5.93-.92,2.87-7.53,1.79,1.75-4.87,1.26,4.14-2.67,10.68.36,10.68.36a13.81,13.81,0,0,0,2.89-1c1.89-.81,3.56-3.09,5.35-1.34s5-3.81,5-3.81a29.32,29.32,0,0,1,3.69.94,8.64,8.64,0,0,0,3.61.45,27.42,27.42,0,0,0,4.52-.2c2-.31,3.65-2.59,5.28-1.83s4.1-6.21,2.86,2.08-9.26,12.07-6,7a41.51,41.51,0,0,1,10.89-11.31c3.65-2.59,4.71-2.25,5.51-.35s1.79,1.74,3.69.94.27-1.56,1.9-.8a4.75,4.75,0,0,0,3.61.45c1.49-.23-5.46,3.89,1.49-.23s9.43-20.7,5.79-11.53-2.26,11.49,2.61,10.22" style="fill:none;stroke:#263238;stroke-linecap:round;stroke-miterlimit:10"></path><path d="M173.54,252.57s11.88-11.46,11.15-12.87-4.52.2-7.29,5.18-.82,7.72,6.63,3.53-3.39,1,4.26,1.36,9.91-4.58,10.14-3.1-2.32,1.37,3.69,1,3.07-3,9.23-2.45,8.9-1.39,8.9-1.39l3.95-.61s-8,.73,2.39-.88,14.95-14.47,9.95-7.62-2.65,9,2.48,6.19l5.13-2.82s6.48-7.08,3.42,2.5-6.68,2.56,4.71-2.25,11.1-.21,14.9-1.81,3.18-5.56,5.7-2.41,2.36,2.17,6.31,1.55,2.89-1,6.35-1.49L293,233" style="fill:none;stroke:#263238;stroke-linecap:round;stroke-miterlimit:10"></path><path d="M175.54,288.19s8.28-5.34,9.6-13.14-5.21,2.33-4.5,13.35-3.17-4.06,8.38-7.88-1,3.2.28,5,10.75-5.72,10.64-3.18,2,3.23,7.82-1.72-3.65-4-4.1-.37,2.36,2.16,9.54-.48.15,1,4.6.3,14.24-9.3,12.31-5.46-.07,6.09,2.09,3.73,6.76-8.65,7.14-6.18a6,6,0,0,1-.89,4.19" style="fill:none;stroke:#263238;stroke-linecap:round;stroke-miterlimit:10"></path></g><g id="freepik--highlighter-pen--inject-24"><path d="M129.13,194.09a6,6,0,0,0-.62-.57,9.32,9.32,0,0,0-2.07-1.22l-.44-.16-.11,0c-3.94-1.22-17.41-1.8-21.93-2a5,5,0,0,0-5,3.69l0,.11C98,197.61,84.3,288.15,84.3,288.15s-.1,2-.24,5.13c-.06,1.37-.12,3-.2,4.65,0,.43,0,.86,0,1.3,0,.88-.07,1.78-.11,2.69-.13,3.21-.25,6.59-.34,9.68-.07,2.2-.12,4.26-.15,6,0,1.39,0,2.57,0,3.47a51.27,51.27,0,0,0,.35,6.27c.39,2.58,1.29,3.77,3.51,4.16.55.1,1.35.22,2.32.34l.6.07,2.75.3.76.07,2.35.19,1.62.1,1.63.08c1.07.05,2.13.07,3.14.07a30.85,30.85,0,0,0,4.4-.25h0l.13,0,.37-.07h0l.41-.1h.08l.41-.13.69-.26.63-.26a12.34,12.34,0,0,0,2.41-1.29,8.17,8.17,0,0,0,.7-.56q.32-.28.6-.6l.26-.31a13.41,13.41,0,0,0,1-1.44v0a1.17,1.17,0,0,0,.12-.25l.06-.15.1-.26a2.09,2.09,0,0,1,.08-.23c0-.11.06-.2.1-.32l.09-.28c0-.13.07-.25.11-.39s.07-.22.1-.33.08-.3.13-.46.07-.27.11-.4.08-.32.13-.5.08-.3.12-.45.09-.36.14-.56l.12-.47.15-.61c0-.17.09-.36.14-.54l.15-.64c.05-.18.09-.38.14-.57s.11-.45.16-.68l.15-.61c0-.23.11-.46.16-.7s.1-.44.16-.66.11-.48.16-.73a1.6,1.6,0,0,0,0-.21c0-.14.07-.28.1-.42s.12-.54.19-.82.09-.42.14-.64.12-.55.19-.83l.15-.66.18-.83c0-.24.11-.49.16-.73l.18-.79c0-.25.11-.51.16-.76l.18-.79c0-.12,0-.24.07-.36s.07-.28.1-.42.11-.52.16-.78.11-.51.17-.77.11-.54.17-.8.11-.52.17-.78.1-.5.16-.75.11-.55.17-.83l.15-.72c.06-.26.11-.51.16-.76s.11-.53.17-.79l.15-.75c0-.23.1-.46.14-.69s.07-.34.11-.51l.06-.29c0-.22.09-.44.13-.66s.11-.5.16-.75.08-.43.13-.64l.15-.77c0-.17.07-.35.1-.52l.12-.58c0-.07,0-.14,0-.22s.07-.33.1-.5l.15-.73.09-.5c.05-.23.09-.46.13-.67l.09-.44.12-.67c0-.12,0-.23.07-.34l.12-.65.06-.32c0-.2.07-.39.1-.57v0h0c0-.24.08-.48.12-.69.17-1,.4-3.21.68-6.3.11-1.16.22-2.44.34-3.84.43-5.1.93-11.66,1.46-18.86,0-.65.09-1.31.14-2,2-27.22,4.22-62.15,4.22-62.15A2.35,2.35,0,0,0,129.13,194.09Z" style="opacity:0.30000000000000004"></path><path d="M79.63,287.15s-1.23,25.76-1.09,32.9.31,9.81,3.85,10.44,17.2,2,21,.62,5-2.6,6.28-4.71,7.3-30.57,8.66-38.56,6.85-93.12,6.85-93.12.21-1.81-3.44-3.42c-3-1.35-17.72-2-22.48-2.16a5,5,0,0,0-5.05,3.68s0,.08,0,.11C93.3,196.6,79.63,287.15,79.63,287.15Z" style="fill:#5B48BC"></path><g style="clip-path:url(#freepik--clip-path--inject-24)"><path d="M101.37,331.53a9,9,0,0,0,2-.42c3.84-1.38,5-2.6,6.28-4.71s7.3-30.57,8.66-38.56,6.85-93.12,6.85-93.12.21-1.81-3.44-3.42a6.7,6.7,0,0,0-1.09-.35c-.79,19.75-3.46,43.2-8.15,71.06C108.1,288.37,103.13,320.23,101.37,331.53Z" style="opacity:0.5"></path></g><path d="M79.63,287.15s-1.23,25.76-1.09,32.9.31,9.81,3.85,10.44,17.2,2,21,.62,5-2.6,6.28-4.71,7.3-30.57,8.66-38.56,6.85-93.12,6.85-93.12.21-1.81-3.44-3.42c-3-1.35-17.72-2-22.48-2.16a5,5,0,0,0-5.05,3.68s0,.08,0,.11C93.3,196.6,79.63,287.15,79.63,287.15Z" style="fill:none;stroke:#263238;stroke-linecap:round;stroke-linejoin:round"></path><path d="M107.57,290.14c-4.27,0-22.66-1.94-25.51-2.55a22.36,22.36,0,0,1-2.4-.64l0,.2s-1.23,25.76-1.09,32.9.31,9.81,3.85,10.44,17.2,2,21,.62,5-2.6,6.28-4.71,7-29,8.54-37.86C114.64,290.41,111.08,290.11,107.57,290.14Z" style="fill:#263238"></path><g style="clip-path:url(#freepik--clip-path-2--inject-24)"><path d="M101.37,331.53a9,9,0,0,0,2-.42c3.84-1.38,5-2.6,6.28-4.71s7.3-30.57,8.66-38.56,6.85-93.12,6.85-93.12.21-1.81-3.44-3.42a6.7,6.7,0,0,0-1.09-.35c-.79,19.75-3.46,43.2-8.15,71.06C108.1,288.37,103.13,320.23,101.37,331.53Z" style="opacity:0.5"></path><path d="M107.61,292.52a38.22,38.22,0,0,0,8.31-1.28" style="fill:none;stroke:#fff;stroke-linecap:round;stroke-linejoin:round;opacity:0.26"></path><path d="M81.09,289.57s22.57,3.09,26.52,2.95" style="fill:none;stroke:#fff;stroke-linecap:round;stroke-linejoin:round"></path></g><path d="M107.57,290.14c-4.27,0-22.66-1.94-25.51-2.55a22.36,22.36,0,0,1-2.4-.64l0,.2s-1.23,25.76-1.09,32.9.31,9.81,3.85,10.44,17.2,2,21,.62,5-2.6,6.28-4.71,7-29,8.54-37.86C114.64,290.41,111.08,290.11,107.57,290.14Z" style="fill:none;stroke:#263238;stroke-linecap:round;stroke-linejoin:round"></path></g><g id="freepik--Plant--inject-24"><circle cx="381.86" cy="146.47" r="42.91" transform="translate(-24.48 192.93) rotate(-27.51)" style="fill:#263238;stroke:#263238;stroke-linecap:round;stroke-linejoin:round"></circle><circle cx="378.66" cy="142.2" r="42.91" transform="translate(190.8 500.41) rotate(-82.91)" style="fill:#fff;stroke:#263238;stroke-linecap:round;stroke-linejoin:round"></circle><circle cx="378.66" cy="142.2" r="38.65" transform="translate(176.95 492.8) rotate(-80.67)" style="fill:#263238;stroke:#263238;stroke-linecap:round;stroke-linejoin:round"></circle><path d="M374.13,113.15S369.87,102.49,362.4,95s-37.84-12.26-37.84-12.26a111.22,111.22,0,0,1,13.32,15.46c6.93,9.59,29.86,31.45,29.86,31.45s-11.2-9.6-21.33-10.66-35.71,4.26-37.31,4.26,9.59,4.27,17.59,8,38.91,6.93,38.91,6.93-13.32,3.73-22.39,6.93-17.59,26.65-17.59,26.65,11.73-10.66,21.86-13.33S372,151,372,151s-9.06,10.13-11.19,17.06-.54,22.92-.54,22.92,4.8-14.93,10.66-20.79,12.26-16,12.26-16a145.88,145.88,0,0,1,8,14.92c4.26,9.07,6.93,22.39,6.93,22.39s6.93-14.92,6.4-22.39S396,148.33,396,148.33s5.33-3.73,13.32-.53,21.86,16.53,21.86,16.53-3.2-17.59-8.53-24.52-28.25-9.07-28.25-9.07,12.79-7.46,20.79-9.06,18.66,2.13,18.66,2.13-12.27-17-21.86-18.12-24,13.86-24,13.86,3.2-16,4.27-21.32-1.07-18.66-1.07-18.66-5.86,3.2-12.79,13.33A26.51,26.51,0,0,0,374.13,113.15Z" style="fill:#5B48BC"></path><path d="M374.13,113.15S369.87,102.49,362.4,95s-37.84-12.26-37.84-12.26a111.22,111.22,0,0,1,13.32,15.46c6.93,9.59,29.86,31.45,29.86,31.45s-11.2-9.6-21.33-10.66-35.71,4.26-37.31,4.26,9.59,4.27,17.59,8,38.91,6.93,38.91,6.93-13.32,3.73-22.39,6.93-17.59,26.65-17.59,26.65,11.73-10.66,21.86-13.33S372,151,372,151s-9.06,10.13-11.19,17.06-.54,22.92-.54,22.92,4.8-14.93,10.66-20.79,12.26-16,12.26-16a145.88,145.88,0,0,1,8,14.92c4.26,9.07,6.93,22.39,6.93,22.39s6.93-14.92,6.4-22.39S396,148.33,396,148.33s5.33-3.73,13.32-.53,21.86,16.53,21.86,16.53-3.2-17.59-8.53-24.52-28.25-9.07-28.25-9.07,12.79-7.46,20.79-9.06,18.66,2.13,18.66,2.13-12.27-17-21.86-18.12-24,13.86-24,13.86,3.2-16,4.27-21.32-1.07-18.66-1.07-18.66-5.86,3.2-12.79,13.33A26.51,26.51,0,0,0,374.13,113.15Z" style="opacity:0.5"></path><path d="M384.63,96.93c.37-1.54.78-3.06,1.23-4.57" style="fill:none;stroke:#263238;stroke-linecap:round;stroke-linejoin:round;stroke-width:0.5px"></path><path d="M349,96.92c5,3.65,11.23,8.66,14.44,13,5.86,8,17.59,25.06,17.59,25.06a158.65,158.65,0,0,1,2.71-34.17" style="fill:none;stroke:#263238;stroke-linecap:round;stroke-linejoin:round;stroke-width:0.5px"></path><path d="M341.62,91.83s1.55,1,3.88,2.59" style="fill:none;stroke:#263238;stroke-linecap:round;stroke-linejoin:round;stroke-width:0.5px"></path><path d="M381.06,135s20.26-20.26,28.79-21.86,16,4.8,16,4.8" style="fill:none;stroke:#263238;stroke-linecap:round;stroke-linejoin:round;stroke-width:0.5px"></path><path d="M344.86,152c-4.93,3.14-5.38,4.91-5.38,4.91" style="fill:none;stroke:#263238;stroke-linecap:round;stroke-linejoin:round;stroke-width:0.5px"></path><path d="M425.31,153.67s-3.2-8-14.4-11.73-28.78-4.27-28.78-4.27-24.67,8.08-33.69,12.29" style="fill:none;stroke:#263238;stroke-linecap:round;stroke-linejoin:round;stroke-width:0.5px"></path><path d="M371.36,134.63c6,1.73,10.77,3,10.77,3" style="fill:none;stroke:#263238;stroke-linecap:round;stroke-linejoin:round;stroke-width:0.5px"></path><path d="M333.81,125.16c5.79.35,13.25,1.14,17.4,2.92,3.38,1.45,10.05,3.55,16.33,5.42" style="fill:none;stroke:#263238;stroke-linecap:round;stroke-linejoin:round;stroke-width:0.5px"></path><path d="M325.62,124.88s1.95,0,4.83.11" style="fill:none;stroke:#263238;stroke-linecap:round;stroke-linejoin:round;stroke-width:0.5px"></path><path d="M381.06,140.87s-14.92,22.39-16,27.72a54.25,54.25,0,0,0-1.07,9.6" style="fill:none;stroke:#263238;stroke-linecap:round;stroke-linejoin:round;stroke-width:0.5px"></path><path d="M387.7,147.92c2.87,3.71,6.32,8.65,7.75,12.68a86.8,86.8,0,0,1,3.74,14.92" style="fill:none;stroke:#263238;stroke-linecap:round;stroke-linejoin:round;stroke-width:0.5px"></path><path d="M383.19,142.47s1.19,1.32,2.84,3.35" style="fill:none;stroke:#263238;stroke-linecap:round;stroke-linejoin:round;stroke-width:0.5px"></path><path d="M367.36,117.75s-2.76-11.15-1.05-21.57,23.6-32,23.6-32a110.83,110.83,0,0,0-1.81,20.33c0,11.84-5.91,43-5.91,43s3.5-14.33,11.11-21.1S424.79,89,426.09,88s-5.3,9.06-9.62,16.76-27.57,28.32-27.57,28.32,13-4.74,22.23-7.43S441,137.08,441,137.08s-15.74-1.82-25.52,1.92-24.27,8.24-24.27,8.24,13.27,2.95,19,7.33S424,172.88,424,172.88s-12.6-9.33-20.78-10.67-19.29-5.84-19.29-5.84a148.18,148.18,0,0,0,2.21,16.79c1.82,9.85,7.43,22.23,7.43,22.23s-14.33-8.08-18.25-14.46-5.2-21.86-5.2-21.86-6.51.08-11.14,7.34-8.11,26.17-8.11,26.17-7.67-16.15-7.38-24.89,17.67-23.84,17.67-23.84-14.75,1.4-22.18,4.76-13.91,12.62-13.91,12.62,0-21,7.18-27.47S359.83,131,359.83,131l-15.9-14.84c-4-3.7-10-15.77-10-15.77s6.62-.83,18.16,3.36A26.49,26.49,0,0,1,367.36,117.75Z" style="fill:#5B48BC"></path><path d="M349.37,110.69q-1.8-1.55-3.66-3" style="fill:none;stroke:#263238;stroke-linecap:round;stroke-linejoin:round;stroke-width:0.5px"></path><path d="M378.28,89.92c-1.93,5.87-4.07,13.58-4.13,19-.1,9.91.33,30.61.33,30.61a158.31,158.31,0,0,0-22.13-26.18" style="fill:none;stroke:#263238;stroke-linecap:round;stroke-linejoin:round;stroke-width:0.5px"></path><path d="M381.34,81.46s-.7,1.71-1.65,4.37" style="fill:none;stroke:#263238;stroke-linecap:round;stroke-linejoin:round;stroke-width:0.5px"></path><path d="M374.48,139.54s-28.27-4.64-36.13-1-10.19,13.22-10.19,13.22" style="fill:none;stroke:#263238;stroke-linecap:round;stroke-linejoin:round;stroke-width:0.5px"></path><path d="M413.77,132.18c5.84-.32,7.23.86,7.23.86" style="fill:none;stroke:#263238;stroke-linecap:round;stroke-linejoin:round;stroke-width:0.5px"></path><path d="M349.42,180.5s-2.06-8.36,4.85-17.92,20.9-20.25,20.9-20.25,24.74-7.83,34.53-9.67" style="fill:none;stroke:#263238;stroke-linecap:round;stroke-linejoin:round;stroke-width:0.5px"></path><path d="M382.14,133.58c-3.83,4.88-7,8.75-7,8.75" style="fill:none;stroke:#263238;stroke-linecap:round;stroke-linejoin:round;stroke-width:0.5px"></path><path d="M407.12,104c-4.51,3.66-10.1,8.65-12.44,12.52-1.9,3.15-6.08,8.75-10.09,13.93" style="fill:none;stroke:#263238;stroke-linecap:round;stroke-linejoin:round;stroke-width:0.5px"></path><path d="M413.6,99s-1.58,1.13-3.85,2.9" style="fill:none;stroke:#263238;stroke-linecap:round;stroke-linejoin:round;stroke-width:0.5px"></path><path d="M377.9,144.3s25.18,9.48,29.16,13.19a54.94,54.94,0,0,1,6.46,7.17" style="fill:none;stroke:#263238;stroke-linecap:round;stroke-linejoin:round;stroke-width:0.5px"></path><path d="M376.62,153.89c-.17,4.7-.09,10.73,1.09,14.83a86.67,86.67,0,0,0,5.68,14.3" style="fill:none;stroke:#263238;stroke-linecap:round;stroke-linejoin:round;stroke-width:0.5px"></path><path d="M377.1,146.85s-.2,1.75-.35,4.37" style="fill:none;stroke:#263238;stroke-linecap:round;stroke-linejoin:round;stroke-width:0.5px"></path></g><g id="freepik--Hand--inject-24"><path d="M387.21,363.33c-1.92-5.41-2.26-33.79-1.83-54l11.23,2.43a8.21,8.21,0,0,0,5.73-.85,8,8,0,0,0,1.2-.82,7,7,0,0,0,1-1,8.11,8.11,0,0,0,2-4.21,8,8,0,0,0,.08-.84,8.19,8.19,0,0,0-1.17-4.62,8.34,8.34,0,0,0-.94-1.27,8.22,8.22,0,0,0-4.91-2.63l-13.56-2c.12-1.76.26-3.13.4-4a18.76,18.76,0,0,0,.3-4l.93-3c1.37-4.39.33-10.85-3.4-14.52s-17-10.13-20.88-13.52-32.93-24.08-38.14-22.86-11.37,8.65-16.62,12.76S284.47,264,284.47,264c.06-.65-9.72,3.3-12.1,7.13a1.67,1.67,0,0,0-.51,1.34,6.91,6.91,0,0,0,4.34,4.78L267.72,276a2.55,2.55,0,0,0-2.5,1.12c-3-.45-9.12-1.12-13.54.09,0,0,7.21,3.53,12.6,4.71a2.55,2.55,0,0,0,1.88,1.67L277.41,286a12.84,12.84,0,0,0-.46,2,3.51,3.51,0,0,0,.25,1.82c.05.38.12.77.21,1.18,1.6,6.8,10.24,15.06,16.54,20.52s12.33,14.81,16.07,25.65S316.1,358,324.42,369a51.58,51.58,0,0,0,4.61,5.27l77.57,49S390,371.28,387.21,363.33ZM286,278.05c-.13.2-.26.4-.37.61l-2.14-.32A17.92,17.92,0,0,0,286,278.05Z" style="opacity:0.30000000000000004"></path><path d="M361.16,449.91l-49.52-85.6s-5.54-38.89-17.35-54.54-28.37-27.07-18.76-35.07,34-23.3,39-22.32,38.66,18,48.17,20.75,12.84,6.79,11.42,15-2,65.78.81,73.73S409,426.47,409,426.47" style="fill:#fff"></path><g style="clip-path:url(#freepik--clip-path-3--inject-24)"><path d="M375,361.88c-2.83-7.95-2.23-65.5-.81-73.73.87-5-.05-8.49-3.08-11a36.71,36.71,0,0,1-2.19,13.39c-2.67,7.57-4,12.91-4,12.91s-.44,27.15,1.34,41,10.68,38.28,19.14,51.64c6.26,9.88,15.19,18.78,19.42,22.75C396.12,403,377.12,368,375,361.88Z" style="fill:#5B48BC"></path><path d="M375,361.88c-2.83-7.95-2.23-65.5-.81-73.73.87-5-.05-8.49-3.08-11a36.71,36.71,0,0,1-2.19,13.39c-2.67,7.57-4,12.91-4,12.91s-.44,27.15,1.34,41,10.68,38.28,19.14,51.64c6.26,9.88,15.19,18.78,19.42,22.75C396.12,403,377.12,368,375,361.88Z" style="fill:#fff;opacity:0.5"></path></g><path d="M361.16,449.91l-49.52-85.6s-5.54-38.89-17.35-54.54-28.37-27.07-18.76-35.07,34-23.3,39-22.32,38.66,18,48.17,20.75,12.84,6.79,11.42,15-2,65.78.81,73.73S409,426.47,409,426.47" style="fill:none;stroke:#263238;stroke-linecap:round;stroke-miterlimit:10"></path><path d="M262.48,276.24a44.56,44.56,0,0,0,21.81-7.12c11.13-7.12,7.57-8.46,7.57-8.46s5.78-1.78,9.34-3.11a46.52,46.52,0,0,0,8.46-4.9s14.25,9.35,20.92,12a71.72,71.72,0,0,0,9.84,3.36l9.31,12.22a31.86,31.86,0,0,0-12.91,11.13c-5.34,8-12,18.69-15.14,20s-1.78,2.67-15.58-2.67S261.59,284.26,262.48,276.24Z" style="fill:#5B48BC"></path><path d="M262.48,276.24a44.56,44.56,0,0,0,21.81-7.12c11.13-7.12,7.57-8.46,7.57-8.46s5.78-1.78,9.34-3.11a46.52,46.52,0,0,0,8.46-4.9s14.25,9.35,20.92,12a71.72,71.72,0,0,0,9.84,3.36l9.31,12.22a31.86,31.86,0,0,0-12.91,11.13c-5.34,8-12,18.69-15.14,20s-1.78,2.67-15.58-2.67S261.59,284.26,262.48,276.24Z" style="fill:#fff;opacity:0.5"></path><path d="M287.14,280.35s10.7-1.32,18.24-15.05c0,0,8.88,3.76,18.12,1.35" style="fill:none;stroke:#263238;stroke-linecap:round;stroke-miterlimit:10"></path><path d="M316.15,270.42s-5.16,13.66,5.72,31.73" style="fill:none;stroke:#263238;stroke-linecap:round;stroke-miterlimit:10"></path><path d="M304.72,271.67s5.39,6.63,6.27,12.41" style="fill:none;stroke:#263238;stroke-linecap:round;stroke-miterlimit:10"></path><path d="M314.81,308.54s9-5.69,13.79-11.61,6.95-12.16,14.5-14.65" style="fill:none;stroke:#263238;stroke-linecap:round;stroke-miterlimit:10"></path><line x1="305.38" y1="265.3" x2="303.19" y2="262.71" style="fill:none;stroke:#263238;stroke-linecap:round;stroke-miterlimit:10"></line><path d="M254.78,276s-9.3-1.88-15.36-.22c0,0,8.92,4.37,14.33,5Z" style="fill:#263238;stroke:#263238;stroke-linecap:round;stroke-miterlimit:10"></path><path d="M387.3,294.14,255.46,274.55a2.56,2.56,0,0,0-2.86,1.91L252,279a2.55,2.55,0,0,0,1.94,3.13l130.45,28.2a8.24,8.24,0,0,0,9.89-6.84h0A8.24,8.24,0,0,0,387.3,294.14Z" style="fill:#5B48BC;stroke:#263238;stroke-linecap:round;stroke-miterlimit:10"></path><path d="M387.3,294.14l-19.93-3a10,10,0,0,0-4.53,10.93,10.12,10.12,0,0,0,1.92,4l19.59,4.23a8.24,8.24,0,0,0,9.89-6.84h0A8.24,8.24,0,0,0,387.3,294.14Z" style="fill:#263238;stroke:#263238;stroke-linecap:round;stroke-miterlimit:10"></path><path d="M333.94,306.44s-11.34,2.66-16.41,1.46S302.11,292.14,295,287.35s-11.44-5.93-18.88-7.05-12.58,2.47-11,9.28,10.23,15.06,16.54,20.52,12.33,14.8,16.07,25.65,6.08,20.82,14.4,31.78,18.7,15.47,22.19,16.08" style="fill:#fff"></path><g style="clip-path:url(#freepik--clip-path-4--inject-24)"><path d="M328.31,308.05l-.8-.41c-3.44.5-7.47.85-10,.26-5.06-1.2-15.42-15.76-22.52-20.55s-11.44-5.93-18.88-7.05a16.42,16.42,0,0,0-3.59-.16,48.43,48.43,0,0,1,16,7.31c7.92,5.72,13.64,20.23,22.43,22.87S328.31,308.05,328.31,308.05Z" style="fill:#5B48BC"></path><path d="M328.31,308.05l-.8-.41c-3.44.5-7.47.85-10,.26-5.06-1.2-15.42-15.76-22.52-20.55s-11.44-5.93-18.88-7.05a16.42,16.42,0,0,0-3.59-.16,48.43,48.43,0,0,1,16,7.31c7.92,5.72,13.64,20.23,22.43,22.87S328.31,308.05,328.31,308.05Z" style="fill:#fff;opacity:0.5"></path></g><path d="M333.94,306.44s-11.34,2.66-16.41,1.46S302.11,292.14,295,287.35s-11.44-5.93-18.88-7.05-12.58,2.47-11,9.28,10.23,15.06,16.54,20.52,12.33,14.8,16.07,25.65,6.08,20.82,14.4,31.78,18.7,15.47,22.19,16.08" style="fill:none;stroke:#263238;stroke-linecap:round;stroke-miterlimit:10"></path><path d="M270.84,294.46s.54-5.87,8.58-11.34c0,0-5.37-3.53-9.05-2.9s-5.13,2.64-5.69,6.36S270.84,294.46,270.84,294.46Z" style="fill:#fff;stroke:#263238;stroke-linecap:round;stroke-miterlimit:10"></path><path d="M276.12,300.69a10.7,10.7,0,0,0,2.06,1.62" style="fill:none;stroke:#263238;stroke-linecap:round;stroke-miterlimit:10"></path><path d="M282,286.82s-8.54,4.4-7.17,11.26" style="fill:none;stroke:#263238;stroke-linecap:round;stroke-miterlimit:10"></path><path d="M374,285.55l1.36-4.39c1.36-4.38.33-10.84-3.4-14.51s-17-10.13-20.88-13.52S318.16,229,313,230.27s-11.37,8.65-16.63,12.75-24.12,19.54-24.12,19.54S259,268.3,259.6,271s3.35,6.15,11.66,5.88,22.16-8.55,24.26-9.77,15.17-9.78,15.17-9.78a45.78,45.78,0,0,0,11.52,8.3c6.17,2.86,7,3.15,7,3.15s1.61,5.85,6.14,8.85" style="fill:#fff"></path><g style="clip-path:url(#freepik--clip-path-5--inject-24)"><path d="M366.64,266.89c4.8,3.77,5.11,11.24,3.78,17.93l3.59.73,1.36-4.39c1.36-4.38.33-10.84-3.4-14.51s-17-10.13-20.88-13.52c-1-.88-3.76-2.95-7.33-5.49l-.71.11S360.41,262,366.64,266.89Z" style="fill:#5B48BC"></path><path d="M366.64,266.89c4.8,3.77,5.11,11.24,3.78,17.93l3.59.73,1.36-4.39c1.36-4.38.33-10.84-3.4-14.51s-17-10.13-20.88-13.52c-1-.88-3.76-2.95-7.33-5.49l-.71.11S360.41,262,366.64,266.89Z" style="fill:#fff;opacity:0.5"></path><path d="M262.48,276.24a44.56,44.56,0,0,0,21.81-7.12c11.13-7.12,7.57-8.46,7.57-8.46s5.78-1.78,9.34-3.11a46.52,46.52,0,0,0,8.46-4.9s14.25,9.35,20.92,12a71.72,71.72,0,0,0,9.84,3.36l9.31,12.22a31.86,31.86,0,0,0-12.91,11.13c-5.34,8-12,18.69-15.14,20s-1.78,2.67-15.58-2.67S261.59,284.26,262.48,276.24Z" style="fill:#5B48BC"></path><path d="M262.48,276.24a44.56,44.56,0,0,0,21.81-7.12c11.13-7.12,7.57-8.46,7.57-8.46s5.78-1.78,9.34-3.11a46.52,46.52,0,0,0,8.46-4.9s14.25,9.35,20.92,12a71.72,71.72,0,0,0,9.84,3.36l9.31,12.22a31.86,31.86,0,0,0-12.91,11.13c-5.34,8-12,18.69-15.14,20s-1.78,2.67-15.58-2.67S261.59,284.26,262.48,276.24Z" style="fill:#fff;opacity:0.5"></path></g><path d="M374,285.55l1.36-4.39c1.36-4.38.33-10.84-3.4-14.51s-17-10.13-20.88-13.52S318.16,229,313,230.27s-11.37,8.65-16.63,12.75-24.12,19.54-24.12,19.54S259,268.3,259.6,271s3.35,6.15,11.66,5.88,22.16-8.55,24.26-9.77,15.17-9.78,15.17-9.78a45.78,45.78,0,0,0,11.52,8.3c6.17,2.86,7,3.15,7,3.15s1.61,5.85,6.14,8.85" style="fill:none;stroke:#263238;stroke-linecap:round;stroke-miterlimit:10"></path><path d="M259.6,271s1.34.64,4.18-.5,8.36-7.22,8.42-8S260.05,266.85,259.6,271Z" style="fill:#fff;stroke:#263238;stroke-linecap:round;stroke-miterlimit:10"></path><path d="M310.16,247.65a17.89,17.89,0,0,1,.47-1.77" style="fill:none;stroke:#263238;stroke-linecap:round;stroke-miterlimit:10"></path><path d="M310.69,257.35a19.46,19.46,0,0,1-.85-7.44" style="fill:none;stroke:#263238;stroke-linecap:round;stroke-miterlimit:10"></path></g></svg>