<svg xmlns="http://www.w3.org/2000/svg" viewBox="0 0 500 500"><g id="freepik--background-complete--inject-34"><rect x="49.04" y="228.17" width="48.65" height="12.87" style="fill:#ebebeb"></rect><path d="M77.12,254.6s0-.09,0-.24l0-.66c0-.6,0-1.45,0-2.53,0-2.22,0-5.42-.08-9.44l.15.15L28.47,242l.25-.24h0V245c0,1.09,0,2.17,0,3.25v6.33l-.24-.25,34.67.11,10.23.07,2.77,0h.72l.26,0H76.9l-.7,0-2.71,0-10.18.07-34.84.11h-.24v-.24c0-2.07,0-4.19,0-6.33v-6.52h0l.25-.25,48.65.09h.15v.15c0,4.06-.06,7.29-.08,9.53,0,1.07,0,1.9,0,2.5,0,.26,0,.47,0,.63A.85.85,0,0,1,77.12,254.6Z" style="fill:#e0e0e0"></path><rect x="231.78" y="31.98" width="48.65" height="12.87" style="fill:#ebebeb"></rect><path d="M259.86,58.41a2.07,2.07,0,0,1,0-.23l0-.66c0-.61,0-1.45,0-2.53,0-2.23,0-5.42-.08-9.45l.15.15-48.65.1.25-.25h0v6.52q0,3.22,0,6.33l-.24-.24,34.67.11,10.23.07,2.77,0,.73,0h.25s-.07,0-.22,0h-.7l-2.71,0-10.18.06-34.84.12H211v-.25c0-2.07,0-4.18,0-6.33V45.56h0l.25-.25,48.65.1H260v.15c0,4.07-.06,7.29-.08,9.54,0,1.06,0,1.9,0,2.49,0,.26,0,.47,0,.64S259.87,58.42,259.86,58.41Z" style="fill:#e0e0e0"></path><rect x="423.69" y="65.85" width="48.65" height="12.87" style="fill:#f5f5f5"></rect><path d="M451.77,65.53a1,1,0,0,1,0-.23v-.66c0-.61,0-1.45,0-2.53,0-2.22-.05-5.42-.08-9.45l.15.15-48.65.1c.11-.11-.25.25.24-.25h0V65.53l-.24-.24,34.67.11,10.23.07,2.77,0,.72,0h.26a.94.94,0,0,1-.23,0l-.69,0-2.72,0L438,65.67l-34.84.11h-.25V52.67h0c.49-.49.14-.13.25-.24l48.65.09h.15v.15c0,4.07-.06,7.29-.08,9.54,0,1.07,0,1.9,0,2.5,0,.26,0,.46,0,.63A1.23,1.23,0,0,1,451.77,65.53Z" style="fill:#e0e0e0"></path><path d="M90.29,69.19a1,1,0,0,1,0-.23l0-.66c0-.61,0-1.45,0-2.53,0-2.22,0-5.42-.09-9.45l.16.15-48.65.1c.11-.11-.25.25.24-.25h0V69.19L41.63,69l34.67.11,10.24.07,2.77,0,.72,0h.26a1,1,0,0,1-.23,0l-.69,0-2.72,0-10.18.07-34.84.11h-.24V62.86c0-1.07,0-2.15,0-3.24V56.33h0c.5-.49.14-.13.26-.24l48.65.09h.15v.15c0,4.07-.07,7.29-.09,9.54,0,1.07,0,1.9,0,2.5,0,.26,0,.46,0,.63A1.23,1.23,0,0,1,90.29,69.19Z" style="fill:#e0e0e0"></path><path d="M477.72,267.9a1.35,1.35,0,0,1,0-.24V267c0-.6,0-1.45,0-2.53,0-2.22,0-5.42-.08-9.44l.15.15-48.65.09.24-.24h0V267.9l-.24-.25,34.67.11,10.23.07,2.77,0,.72,0,.26,0h-.23l-.69,0-2.71,0-10.18.07-34.84.11h-.25V255.05h0l.25-.25,48.65.09h.15V255c0,4.06-.06,7.29-.08,9.53,0,1.07,0,1.9,0,2.5,0,.26,0,.47,0,.63A1.66,1.66,0,0,1,477.72,267.9Z" style="fill:#e0e0e0"></path><path d="M382.57,371.35a1,1,0,0,1,0-.23v-.66c0-.61,0-1.45,0-2.54,0-2.22-.05-5.41-.08-9.44l.15.15-48.65.1c.11-.11-.25.25.24-.25h0v12.85l-.24-.24,34.67.11,10.23.07,2.77,0,.72,0h.26l-.23,0h-.69l-2.71,0-10.18.07-34.84.11h-.25V358.5h0l.25-.25,48.65.1h.15v.15c0,4.07-.06,7.29-.08,9.53,0,1.07,0,1.91,0,2.5,0,.26,0,.47,0,.64A1.23,1.23,0,0,1,382.57,371.35Z" style="fill:#e0e0e0"></path><path d="M122.9,162.53a2.07,2.07,0,0,1,0-.23l0-.66c0-.61,0-1.45,0-2.53,0-2.23,0-5.42-.08-9.45l.15.15-48.65.1.25-.25h0V153c0,1.09,0,2.18,0,3.25v6.33l-.24-.24,34.67.11,10.23.07,2.77,0,.72,0h.26s-.07,0-.22,0H122l-2.71,0-10.18.06-34.84.12H74v-.25q0-3.1,0-6.33v-6.52h0l.25-.25,48.65.1h.15v.15c0,4.07-.06,7.29-.08,9.54,0,1.06,0,1.9,0,2.49v.64C122.91,162.47,122.91,162.54,122.9,162.53Z" style="fill:#e0e0e0"></path><path d="M129.5,149.66a1.22,1.22,0,0,1,0-.24c0-.19,0-.41,0-.69,0-.63,0-1.49,0-2.58,0-2.25-.06-5.44-.1-9.36l.18.18-29.23.07c-.23.22.3-.3.24-.25h0v6.62c0,2.15,0,4.24,0,6.24l-.23-.23,20.91.11,6.09.06,1.64,0,.59,0a3.28,3.28,0,0,1-.53,0l-1.6,0-6,.07-21.07.11H100v-.24c0-2,0-4.09,0-6.24V136.8h0l.25-.25,29.23.07h.18v.18c0,4-.08,7.19-.1,9.47,0,1.07,0,1.92,0,2.54S129.51,149.67,129.5,149.66Z" style="fill:#e0e0e0"></path><path d="M326.67,250.85s-7.92-.61-7.27,17.16,2.42,27.23,2.42,27.23-.25,3.94-3.3,3.16-8.76-4.65-11.61-1.8-1.93,7.52,1.95,12.91,11.93,17.5,12.65,18.6,1,3.09-1.17,2.89-16.74-5.22-18.7,1.84,11.3,20.29,12.72,21.76,1.49,2.4.91,3.29-5.32-1.26-9.53-2.52-9.29-2-10.09,2.19,5,16.4,26.94,29.33l10.54,5.32,10-6.34c20.65-14.86,25.32-27.57,24.15-31.65s-6.18-2.9-10.25-1.26-8.59,4.2-9.25,3.37-.68-1.76.6-3.36,13.28-16,10.68-22.83-16.65-.53-18.78-.13-2.05-1.63-1.44-2.77,7.54-13.95,10.91-19.67,4-10.36.76-13-8.44,1.78-11.4,2.84-3.57-2.84-3.57-2.84.9-9.59-.07-27.34-9-16.36-9-16.36" style="fill:#ebebeb"></path><path d="M327.22,266.76s0,.12,0,.37.05.62.08,1.09c.07,1,.15,2.39.27,4.2.23,3.64.51,8.92.84,15.44.67,13,1.44,31.06,2.22,51s1.5,37.94,2.09,51c.3,6.51.55,11.78.72,15.45.08,1.8.14,3.22.19,4.19,0,.47,0,.83,0,1.1v.37s0-.12,0-.37-.05-.63-.08-1.09c-.06-1-.15-2.39-.27-4.2-.22-3.64-.51-8.92-.84-15.44-.67-13-1.44-31.06-2.22-51s-1.5-37.93-2.09-51c-.3-6.51-.55-11.78-.72-15.45-.08-1.81-.14-3.22-.19-4.2,0-.46,0-.83,0-1.09Z" style="fill:#e0e0e0"></path><path d="M314.7,302.32a3.59,3.59,0,0,1,.65.55c.41.37,1,.93,1.67,1.62,1.39,1.39,3.26,3.36,5.27,5.57l5.15,5.67,1.56,1.72a3.11,3.11,0,0,1,.55.65,3.4,3.4,0,0,1-.66-.54c-.4-.37-1-.93-1.66-1.63-1.37-1.4-3.22-3.39-5.23-5.6s-3.79-4.13-5.19-5.64L315.24,303A3.08,3.08,0,0,1,314.7,302.32Z" style="fill:#e0e0e0"></path><path d="M330.6,317.76c-.08-.08,3.81-4.11,8.67-9s8.89-8.8,9-8.72-3.81,4.11-8.68,9S330.68,317.84,330.6,317.76Z" style="fill:#e0e0e0"></path><path d="M330.42,348.39a3.49,3.49,0,0,1,.74-.47l2.07-1.15c1.75-1,4.16-2.32,6.77-3.91s4.92-3.09,6.59-4.2l2-1.3a3.18,3.18,0,0,1,.75-.44,3.82,3.82,0,0,1-.66.57c-.44.34-1.09.83-1.91,1.41-1.63,1.17-3.92,2.72-6.54,4.31s-5.06,2.9-6.84,3.81c-.9.46-1.63.81-2.14,1A3.77,3.77,0,0,1,330.42,348.39Z" style="fill:#e0e0e0"></path><path d="M313,337.59a3.19,3.19,0,0,1,.73.35c.46.24,1.11.61,1.91,1.07,1.61.92,3.81,2.22,6.23,3.67s4.6,2.79,6.17,3.78c.78.49,1.41.89,1.84,1.18a3.82,3.82,0,0,1,.65.48,3,3,0,0,1-.73-.34c-.46-.25-1.11-.62-1.91-1.08-1.61-.92-3.81-2.22-6.23-3.67s-4.6-2.79-6.17-3.77c-.78-.5-1.41-.9-1.84-1.19A3.82,3.82,0,0,1,313,337.59Z" style="fill:#e0e0e0"></path><path d="M309.37,364.61a4.88,4.88,0,0,1,.92.45l2.46,1.37c2.06,1.17,4.9,2.81,8,4.65s5.93,3.51,8,4.74l2.38,1.48a5.32,5.32,0,0,1,.85.59,5.1,5.1,0,0,1-.93-.45l-2.45-1.37c-2.06-1.17-4.9-2.81-8-4.65s-5.93-3.51-8-4.74l-2.39-1.48A5.46,5.46,0,0,1,309.37,364.61Z" style="fill:#e0e0e0"></path><path d="M331.51,377.42a6.93,6.93,0,0,1,.92-.61l2.58-1.55c2.17-1.31,5.17-3.14,8.42-5.24s6.16-4.07,8.25-5.51l2.48-1.71a4.85,4.85,0,0,1,.93-.58,5.75,5.75,0,0,1-.84.71c-.56.44-1.38,1.06-2.41,1.81-2,1.51-4.93,3.52-8.19,5.62s-6.28,3.89-8.5,5.14c-1.11.63-2,1.12-2.64,1.45A5,5,0,0,1,331.51,377.42Z" style="fill:#e0e0e0"></path><polygon points="347.31 395.73 318.07 395.6 327.3 467.88 337.45 467.93 347.31 395.73" style="fill:#e0e0e0"></polygon><path d="M319.55,404.49s0,.1.16.26a1.82,1.82,0,0,0,.7.5,3.52,3.52,0,0,0,3.09-.36c1.18-.65,2.22-1.92,3.8-2.48a8.3,8.3,0,0,1,5.38.13,22.81,22.81,0,0,1,5,2.45,33.7,33.7,0,0,0,4.06,2.2,10.73,10.73,0,0,0,3,.88,4.84,4.84,0,0,0,.84.06c.2,0,.3,0,.3,0a15.06,15.06,0,0,1-4-1.23,37.38,37.38,0,0,1-4-2.27,22.09,22.09,0,0,0-5.08-2.52,8.57,8.57,0,0,0-5.67-.09,7.66,7.66,0,0,0-2.14,1.31,18.11,18.11,0,0,1-1.68,1.29,3.42,3.42,0,0,1-2.85.48A3,3,0,0,1,319.55,404.49Z" style="fill:#f5f5f5"></path><path d="M320.56,417.8s.23-.3.69-.77a6.46,6.46,0,0,1,2.34-1.47,10.46,10.46,0,0,1,4.07-.6,41.42,41.42,0,0,1,5.09.72,17.85,17.85,0,0,0,5.21.24,14.35,14.35,0,0,0,4.1-1.16,12.75,12.75,0,0,0,2.47-1.45,4,4,0,0,0,.79-.7,26.05,26.05,0,0,1-3.39,1.84,15,15,0,0,1-4,1,17.79,17.79,0,0,1-5.08-.27,38.72,38.72,0,0,0-5.15-.69,10.45,10.45,0,0,0-4.21.72,6.09,6.09,0,0,0-2.35,1.66,3.88,3.88,0,0,0-.45.65C320.58,417.7,320.55,417.79,320.56,417.8Z" style="fill:#f5f5f5"></path><path d="M343.87,425a2.32,2.32,0,0,0-.8-.43,9.08,9.08,0,0,0-2.42-.53,15.91,15.91,0,0,0-3.67.2c-1.36.21-2.83.58-4.36.9a18,18,0,0,1-4.36.47,9.45,9.45,0,0,1-3.45-.76,8,8,0,0,1-2.62-2,2.55,2.55,0,0,0,.5.76,6.15,6.15,0,0,0,2,1.5,9.18,9.18,0,0,0,3.58.9,17.6,17.6,0,0,0,4.47-.44c1.56-.33,3-.71,4.34-.94a16.94,16.94,0,0,1,3.58-.29A13,13,0,0,1,343.87,425Z" style="fill:#f5f5f5"></path><path d="M323.07,435a4.79,4.79,0,0,1,2.84-.27,13.35,13.35,0,0,1,3,1.12,11.37,11.37,0,0,0,3.85,1.08,11.56,11.56,0,0,0,7-1.59,9.62,9.62,0,0,0,1.75-1.33,2.82,2.82,0,0,0,.52-.62,26.32,26.32,0,0,1-2.43,1.66,12,12,0,0,1-6.79,1.4c-2.77-.17-4.89-1.83-6.81-2a4.21,4.21,0,0,0-2.2.18C323.26,434.72,323.05,434.93,323.07,435Z" style="fill:#f5f5f5"></path><path d="M324.63,448.83a5.7,5.7,0,0,0,2.44-.48c1.48-.48,3.3-1.6,5.43-2.44a8.84,8.84,0,0,1,3.11-.63,5.72,5.72,0,0,1,2.49.58,5.45,5.45,0,0,1,1.8,1.56,1.29,1.29,0,0,0-.27-.61,4,4,0,0,0-1.37-1.25,5.7,5.7,0,0,0-2.64-.72,8.56,8.56,0,0,0-3.29.63c-2.2.86-4,2-5.38,2.57S324.62,448.75,324.63,448.83Z" style="fill:#f5f5f5"></path><path d="M326,455.28a6.49,6.49,0,0,0,1.85.61,32.86,32.86,0,0,0,4.62.8,33.31,33.31,0,0,0,4.69.16,7,7,0,0,0,1.94-.22c0-.15-3,0-6.58-.41S326.07,455.14,326,455.28Z" style="fill:#f5f5f5"></path></g><g id="freepik--Plant--inject-34"><rect x="63.54" y="408.57" width="70.88" height="9.74" style="fill:#263238"></rect><path d="M134.54,418.43H63.42v-10h71.12Zm-70.88-.24h70.63v-9.5H63.66Z" style="fill:#263238"></path><polygon points="70.11 415.07 80.31 465.4 118.06 465.4 127.92 418.31 70.11 415.07" style="fill:#263238"></polygon><polygon points="70.11 460.64 75.55 468.12 121.43 468.12 127.92 460.64 70.11 460.64" style="fill:#455a64"></polygon><path d="M96.31,416.54c-.13,0-.31-23.32-.39-52.08s0-52.07.1-52.07.32,23.31.4,52.07S96.45,416.54,96.31,416.54Z" style="fill:#263238"></path><path d="M112.1,358.19a2.19,2.19,0,0,1-.19.54c-.16.4-.37.9-.63,1.51-.14.33-.3.69-.46,1.09s-.31.85-.47,1.32-.36,1-.55,1.52-.34,1.12-.53,1.73a72.36,72.36,0,0,0-2,8.68,105.81,105.81,0,0,0-1.09,10.85,145.06,145.06,0,0,0,.56,19.82c.22,2.53.45,4.58.62,6,.07.66.13,1.2.18,1.63a2.05,2.05,0,0,1,0,.57,2.42,2.42,0,0,1-.13-.56l-.27-1.62c-.23-1.4-.52-3.44-.79-6a130,130,0,0,1-.71-19.89,101.21,101.21,0,0,1,1.14-10.9,67.79,67.79,0,0,1,2.1-8.71c.2-.6.36-1.19.57-1.73l.58-1.51c.18-.47.36-.91.51-1.32s.36-.75.51-1.07l.72-1.47A2.62,2.62,0,0,1,112.1,358.19Z" style="fill:#263238"></path><path d="M110.29,339.33a4.25,4.25,0,0,1-.22.77c-.19.54-.43,1.26-.74,2.17q-.26.71-.54,1.56c-.18.58-.37,1.21-.57,1.88-.42,1.35-.9,2.88-1.33,4.61-.22.86-.46,1.76-.71,2.69s-.43,1.93-.66,2.95c-.5,2-.85,4.24-1.31,6.54-.78,4.63-1.47,9.75-1.95,15.15s-.64,10.57-.71,15.27,0,8.93.24,12.48c.06,1.77.18,3.38.27,4.79s.17,2.62.26,3.61.13,1.72.17,2.28a4,4,0,0,1,0,.8,4.37,4.37,0,0,1-.13-.78q-.09-.86-.27-2.28c-.12-1-.23-2.2-.34-3.61s-.26-3-.34-4.79c-.24-3.56-.34-7.8-.35-12.51s.22-9.88.67-15.3,1.18-10.55,2-15.19c.47-2.31.84-4.52,1.36-6.55l.69-2.95.75-2.7c.45-1.72,1-3.25,1.4-4.59.21-.67.42-1.3.61-1.88s.4-1.08.58-1.55c.35-.89.62-1.61.83-2.14A4,4,0,0,1,110.29,339.33Z" style="fill:#263238"></path><path d="M91.83,420.66a1.14,1.14,0,0,1,0-.27c0-.21,0-.47-.07-.8,0-.75-.12-1.78-.2-3.09-.17-2.72-.42-6.59-.71-11.36-.62-9.59-1.51-22.83-3.12-37.4-.83-7.28-1.78-14.2-2.78-20.47-.53-3.13-1-6.11-1.55-8.88s-1-5.35-1.53-7.7-1-4.47-1.4-6.33-.81-3.46-1.14-4.76-.56-2.28-.74-3c-.07-.33-.13-.58-.18-.79a1.41,1.41,0,0,1,0-.27.91.91,0,0,1,.09.26c.06.2.14.45.23.77.2.72.48,1.71.83,3s.79,2.88,1.22,4.74,1,4,1.48,6.32,1.08,4.92,1.59,7.7,1.06,5.75,1.6,8.88c1,6.28,2,13.2,2.82,20.5,1.61,14.58,2.45,27.84,3,37.43.26,4.8.44,8.68.55,11.37.05,1.31.09,2.35.12,3.09,0,.33,0,.6,0,.81A1.1,1.1,0,0,1,91.83,420.66Z" style="fill:#263238"></path><path d="M95.74,323.59c-.31-3.3-3.65-5.79-7-5.83s-6.41,2-8.44,4.59a26.55,26.55,0,0,0-4.06,9c-2.23,7.79-3.45,16-2.5,24s4.22,16,10,21.64c.94.92,2.15,1.85,3.44,1.57A4.15,4.15,0,0,0,89,377.45a53.68,53.68,0,0,0,17.43-40.84c-.09-3.06-.49-6.24-2.18-8.79s-5.64-5.25-8.52-4.23" style="fill:#460B42"></path><path d="M71,297.14q-2.33,4.23-4.67,8.46c-.11.2-.25.42-.48.44s-.42-.22-.56-.42l-12.35-19,2.84-1.61Z" style="fill:#460B42"></path><g style="opacity:0.2"><path d="M71,297.14q-2.33,4.23-4.67,8.46c-.11.2-.25.42-.48.44s-.42-.22-.56-.42l-12.35-19,2.84-1.61Z"></path></g><path d="M96,312.38,53.88,287.52a1.92,1.92,0,0,1-1-1c-.17-.62.3-1.22.75-1.68A29,29,0,0,1,76.13,276a25.71,25.71,0,0,1,20.35,12.66c4.07,7.27,4.21,16.88-.46,23.77" style="fill:#460B42"></path><path d="M60,279.58a2.11,2.11,0,0,1,.55-.07c.36,0,.9-.08,1.59-.07a30.92,30.92,0,0,1,5.85.46,34.15,34.15,0,0,1,27.27,24.68,32.3,32.3,0,0,1,1,5.77c.07.69,0,.87.06,1.23a2.18,2.18,0,0,1-.32.92,7.39,7.39,0,0,0,.06-2.13,36.35,36.35,0,0,0-1.19-5.69,34.43,34.43,0,0,0-27-24.43,36,36,0,0,0-5.78-.62C60.72,279.6,60,279.63,60,279.58Z" style="fill:#263238"></path><path d="M90.32,295.22a10,10,0,0,1-2.13,1c-1.34.53-3.22,1.21-5.32,1.87s-4,1.2-5.42,1.54a10.1,10.1,0,0,1-2.3.44,11.48,11.48,0,0,1,2.2-.78l5.37-1.68,5.35-1.73A12,12,0,0,1,90.32,295.22Z" style="fill:#263238"></path><path d="M83.68,277.4a17.43,17.43,0,0,1,.5,4.7,17.61,17.61,0,0,1-.26,4.72,29.17,29.17,0,0,1-.24-4.71A29.32,29.32,0,0,1,83.68,277.4Z" style="fill:#263238"></path><path d="M53.51,287.05A18.62,18.62,0,0,1,56.58,286c1.91-.59,4.58-1.34,7.55-2.05s5.69-1.27,7.66-1.61a18.38,18.38,0,0,1,3.21-.44,22.56,22.56,0,0,1-3.14.79c-2,.43-4.65,1-7.61,1.75s-5.64,1.4-7.58,1.9A21.13,21.13,0,0,1,53.51,287.05Z" style="fill:#263238"></path><path d="M78.25,316.43c-3.63-2.75-7.46-3.29-12-3.11a36.58,36.58,0,0,0-13.14,3.39c-7.1,3.11-13.78,7.7-18,14.19S29.36,346,32.54,353.06A3.15,3.15,0,0,0,34,354.81a3.43,3.43,0,0,0,2.37-.18c8.09-2.64,16.22-5.3,23.66-9.43s14.19-9.87,18.18-17.38a15.08,15.08,0,0,0,1.91-5.76,7.16,7.16,0,0,0-1.85-5.63" style="fill:#460B42"></path><path d="M78.32,315.57a3,3,0,0,1-.58.24l-1.7.58-1.22.41c-.45.16-.92.36-1.44.56-1,.41-2.2.83-3.45,1.43l-2,.91c-.68.31-1.37.7-2.1,1.07-1.46.72-2.94,1.64-4.52,2.57a78.26,78.26,0,0,0-9.57,7.1A79.18,79.18,0,0,0,43.49,339c-1.12,1.45-2.23,2.8-3.13,4.16-.46.67-.93,1.3-1.33,1.95L37.88,347c-.76,1.16-1.32,2.28-1.86,3.24-.26.49-.52.93-.74,1.35s-.39.81-.56,1.17c-.32.66-.59,1.19-.79,1.6a2.63,2.63,0,0,1-.31.55,2.78,2.78,0,0,1,.21-.59c.19-.42.42-1,.71-1.64.16-.37.34-.76.53-1.19s.45-.88.7-1.38c.52-1,1.06-2.12,1.8-3.3l1.13-1.87c.4-.66.87-1.29,1.32-2,.89-1.38,2-2.75,3.11-4.21A69.27,69.27,0,0,1,61.07,323c1.6-.93,3.1-1.84,4.58-2.55.74-.36,1.43-.75,2.13-1.06l2-.87c1.27-.59,2.47-1,3.51-1.37.52-.19,1-.38,1.45-.53l1.24-.36,1.73-.5A4.57,4.57,0,0,1,78.32,315.57Z" style="fill:#263238"></path><path d="M50,330.91a87.08,87.08,0,0,1-8.81,2.84,83.81,83.81,0,0,1-9,2.35,87.84,87.84,0,0,1,8.82-2.84A84,84,0,0,1,50,330.91Z" style="fill:#263238"></path><path d="M49.64,350.36a13.6,13.6,0,0,1-.19-2.75c-.05-1.7-.06-4,0-6.63s.21-4.94.35-6.63a13.42,13.42,0,0,1,.35-2.73,15.72,15.72,0,0,1,0,2.75c-.06,1.86-.13,4.12-.21,6.62s-.12,4.76-.16,6.62A16,16,0,0,1,49.64,350.36Z" style="fill:#263238"></path><path d="M66.31,341.87c-.14,0-.59-4.76-1-10.65s-.63-10.68-.49-10.69.58,4.76,1,10.65S66.45,341.86,66.31,341.87Z" style="fill:#263238"></path><path d="M45.56,320.06a16.43,16.43,0,0,1,2.83-.08c1.74,0,4.15.06,6.8.15s5.06.2,6.8.3a15.21,15.21,0,0,1,2.81.27,15.37,15.37,0,0,1-2.82.09c-1.74,0-4.15-.07-6.8-.16s-5.07-.19-6.81-.29A15.81,15.81,0,0,1,45.56,320.06Z" style="fill:#263238"></path><path d="M85.56,378.11a4.45,4.45,0,0,1-.06-.57c0-.42,0-1-.07-1.62-.06-1.41-.08-3.45,0-6s.21-5.51.52-8.83.8-7,1.48-10.75S89,343,89.81,339.78s1.78-6.09,2.63-8.47S94,327,94.56,325.72c.27-.61.48-1.11.65-1.5a2.53,2.53,0,0,1,.25-.51,2.15,2.15,0,0,1-.16.55c-.14.4-.33.9-.55,1.53-.5,1.31-1.18,3.24-2,5.63s-1.66,5.26-2.52,8.48-1.66,6.78-2.35,10.56-1.17,7.4-1.52,10.7-.54,6.29-.63,8.81-.14,4.54-.13,5.95c0,.66,0,1.2,0,1.62A2,2,0,0,1,85.56,378.11Z" style="fill:#263238"></path><path d="M87.79,350.52a11.11,11.11,0,0,1-1.68,1.84c-1.09,1.09-2.64,2.55-4.41,4.1s-3.41,2.89-4.63,3.83a10.89,10.89,0,0,1-2,1.42,13.08,13.08,0,0,1,1.82-1.7l4.53-3.93,4.49-4A12.51,12.51,0,0,1,87.79,350.52Z" style="fill:#263238"></path><path d="M101.13,361.26a18.43,18.43,0,0,1-1.79-2.48c-1.16-1.68-2.59-3.77-4.17-6.08l-4.25-6a20.19,20.19,0,0,1-1.7-2.54,17.6,17.6,0,0,1,2,2.32c1.17,1.49,2.73,3.58,4.38,5.95s3.06,4.56,4,6.17A19,19,0,0,1,101.13,361.26Z" style="fill:#263238"></path><path d="M94.14,327.47c.07.12-4.36,3.1-9.9,6.66s-10.09,6.36-10.17,6.24,4.36-3.1,9.9-6.66S94.06,327.35,94.14,327.47Z" style="fill:#263238"></path><path d="M106.63,341a82.41,82.41,0,0,1-6.7-6.2,83.39,83.39,0,0,1-6.35-6.55,81.1,81.1,0,0,1,6.7,6.19A80.3,80.3,0,0,1,106.63,341Z" style="fill:#263238"></path><path d="M109.77,340.69l3.81-.32a18.74,18.74,0,0,0,7.68-2.35,30,30,0,0,1,3.58-1.8c4.7-1.89,9.95-1.55,15-1.8a62.24,62.24,0,0,0,23.87-6.11,2.34,2.34,0,0,0,1.05-.94c.78-1.43-.67-2.69-1.92-3.46-6.41-4-12.93-8-20.2-9.91s-15.52-1.63-21.72,2.64c-7.27,5-9.93,15.3-11.16,24.05" style="fill:#460B42"></path><path d="M164.85,326.9a3.31,3.31,0,0,1-.64-.3l-1.81-.94c-1.56-.83-3.81-2-6.66-3.4a61.9,61.9,0,0,0-10.3-4,34,34,0,0,0-13.36-1.08,23,23,0,0,0-12.18,5.23,27.19,27.19,0,0,0-6.34,8.91,73.64,73.64,0,0,0-2.76,6.93l-.68,1.92a3.65,3.65,0,0,1-.26.66,3.34,3.34,0,0,1,.17-.69c.15-.49.34-1.14.58-2a64,64,0,0,1,2.63-7,26.8,26.8,0,0,1,6.35-9.11A23.12,23.12,0,0,1,132,316.7a34,34,0,0,1,13.55,1.14,59.85,59.85,0,0,1,10.34,4.09c2.84,1.42,5.06,2.68,6.6,3.55l1.76,1A3.46,3.46,0,0,1,164.85,326.9Z" style="fill:#263238"></path><path d="M155.72,331.81c-.08.11-5.06-3.11-11.11-7.19s-10.91-7.49-10.83-7.61,5.05,3.11,11.11,7.19S155.79,331.69,155.72,331.81Z" style="fill:#263238"></path><path d="M150.41,316.75a11.85,11.85,0,0,1-3.62.65,12.5,12.5,0,0,1-3.69,0,23.62,23.62,0,0,1,3.65-.38A24.16,24.16,0,0,1,150.41,316.75Z" style="fill:#263238"></path><path d="M128.63,313.92a9.74,9.74,0,0,1-1.63,2.54,10.63,10.63,0,0,1-2.06,2.35,9.87,9.87,0,0,1,1.63-2.55A10.71,10.71,0,0,1,128.63,313.92Z" style="fill:#263238"></path><path d="M133.09,334.74a14.46,14.46,0,0,1-2.39-1.3c-1.44-.87-3.38-2.15-5.46-3.66s-3.9-2.93-5.22-4A16,16,0,0,1,118,324a13.89,13.89,0,0,1,2.28,1.48l5.3,3.85c2.07,1.51,4,2.82,5.35,3.77A16.86,16.86,0,0,1,133.09,334.74Z" style="fill:#263238"></path><path d="M115.37,356.84c-3.62-.95-8,2.57-8.7,6.25s.63,7.44,2.25,10.83a55.26,55.26,0,0,0,15,19.63c6.5,5.17,14.63,8.48,22.94,8.44-1.53-7.12.41-14.57-.45-21.8a28.35,28.35,0,0,0-25.12-24.87c-2.31-.25-5-.61-5.92,1.52" style="fill:#460B42"></path><path d="M146.86,402a2.42,2.42,0,0,1-.52-.24,9.93,9.93,0,0,1-1.35-.91,14.21,14.21,0,0,1-3.59-4.79c-.57-1.12-1.22-2.34-1.85-3.69s-1.27-2.8-2-4.32a44.24,44.24,0,0,0-2.4-4.61,36.59,36.59,0,0,0-3.3-4.49c-2.49-2.92-5.15-5.44-7.46-7.85a51.15,51.15,0,0,1-5.69-6.83A25.22,25.22,0,0,1,116,359a15.74,15.74,0,0,1-.48-1.56,3.47,3.47,0,0,1-.12-.56s.26.75.79,2.05a27.15,27.15,0,0,0,2.89,5.17,53.37,53.37,0,0,0,5.72,6.7c2.32,2.39,5,4.91,7.51,7.85a35.86,35.86,0,0,1,3.34,4.56,40,40,0,0,1,2.4,4.68l1.91,4.33c.61,1.34,1.24,2.58,1.79,3.7a14.63,14.63,0,0,0,3.39,4.81C146.17,401.6,146.89,401.94,146.86,402Z" style="fill:#263238"></path><path d="M128.1,396.07a10.76,10.76,0,0,1,.33-2.44c.29-1.5.75-3.55,1.38-5.78s1.31-4.23,1.84-5.65a11.63,11.63,0,0,1,1-2.26,12.43,12.43,0,0,1-.65,2.37c-.45,1.45-1.06,3.45-1.69,5.68s-1.15,4.25-1.52,5.72A13.09,13.09,0,0,1,128.1,396.07Z" style="fill:#263238"></path><path d="M146.17,378.58a14.22,14.22,0,0,1-2.55-.58c-1.57-.41-3.72-1-6.13-1.51s-4.59-1-6.18-1.26a15,15,0,0,1-2.56-.57,12.87,12.87,0,0,1,2.62.21c1.61.22,3.82.58,6.23,1.13s4.57,1.16,6.12,1.65A12.7,12.7,0,0,1,146.17,378.58Z" style="fill:#263238"></path><path d="M114.64,383.67a14.09,14.09,0,0,1,.39-2.83c.32-1.73.83-4.11,1.51-6.71s1.4-4.93,2-6.6a15.27,15.27,0,0,1,1-2.66,16.24,16.24,0,0,1-.69,2.77c-.48,1.69-1.15,4-1.83,6.61s-1.23,4.95-1.64,6.66A18.39,18.39,0,0,1,114.64,383.67Z" style="fill:#263238"></path><path d="M137.85,363.35c0,.13-4.54-.23-10.11-.82s-10.08-1.18-10.07-1.32a98.57,98.57,0,0,1,10.12.82C133.36,362.62,137.86,363.21,137.85,363.35Z" style="fill:#263238"></path><path d="M134.53,418.27c0,.14-15.92.25-35.55.25s-35.56-.11-35.56-.25S79.34,418,99,418,134.53,418.13,134.53,418.27Z" style="fill:#455a64"></path><path d="M123.46,438.76c0,.13-10.73.25-24,.25s-24-.12-24-.25,10.73-.26,24-.26S123.46,438.62,123.46,438.76Z" style="fill:#455a64"></path><path d="M123,441.68c0,.14-10.54.26-23.54.26S76,441.82,76,441.68s10.54-.25,23.54-.25S123,441.55,123,441.68Z" style="fill:#455a64"></path><path d="M123.87,436.34c0,.14-11.09.25-24.77.25s-24.79-.11-24.79-.25,11.1-.25,24.79-.25S123.87,436.2,123.87,436.34Z" style="fill:#455a64"></path></g><g id="freepik--Floor--inject-34"><path d="M480.63,468.59c0,.14-103.26.26-230.62.26s-230.64-.12-230.64-.26,103.24-.26,230.64-.26S480.63,468.44,480.63,468.59Z" style="fill:#263238"></path></g><g id="freepik--Monitor--inject-34"><rect x="199.63" y="421.15" width="95.35" height="47.98" style="fill:#455a64"></rect><path d="M305.83,267.75H187.46a11.68,11.68,0,0,0-11.68,11.68v181c2.3,3.85,7.15,5.42,11.54,5s8.47-2.35,12.5-4.17,8.27-3.54,12.67-3.39c7.65.27,14.19,6.12,21.8,7,12.33,1.43,22.71-10.22,35.06-11.47,8.31-.84,16.25,3.12,24.14,5.92s17.31,4.27,24-.83V279.43A11.68,11.68,0,0,0,305.83,267.75Z" style="fill:#263238"></path><path d="M197.3,462.5c-.14,0-.26-36.26-.26-81s.12-81,.26-81,.26,36.25.26,81S197.45,462.5,197.3,462.5Z" style="fill:#455a64"></path><path d="M224.62,391.12c.14,0,.26,15.85.26,35.41s-.12,35.42-.26,35.42-.26-15.86-.26-35.42S224.47,391.12,224.62,391.12Z" style="fill:#455a64"></path><path d="M225.58,349.42c.14,0,.26,4.62.26,10.31s-.12,10.3-.26,10.3a100,100,0,0,1-.26-10.3A100.27,100.27,0,0,1,225.58,349.42Z" style="fill:#455a64"></path><path d="M254.81,458.71c-.15,0-.26-35.73-.26-79.8s.11-79.8.26-79.8.26,35.72.26,79.8S255,458.71,254.81,458.71Z" style="fill:#455a64"></path><path d="M284,456.32c-.14,0-.26-33.91-.26-75.73s.12-75.73.26-75.73.26,33.9.26,75.73S284.18,456.32,284,456.32Z" style="fill:#455a64"></path><path d="M355,69.38H130.46a7,7,0,0,0-7,7V235a7,7,0,0,0,7,7h86.19s5.49,17-11.51,25.73h80.59s-19.19-6.58-14.25-25.73H355a7,7,0,0,0,7-7V76.39A7,7,0,0,0,355,69.38Z" style="fill:#455a64"></path><path d="M245.75,225.34c3.05,4.37-1.73,9.15-6.1,6.1a1.9,1.9,0,0,1-.37-.38c-3.05-4.37,1.73-9.14,6.09-6.09A1.49,1.49,0,0,1,245.75,225.34Z" style="fill:#263238"></path><path d="M132.41,72.28H353.09a5.09,5.09,0,0,1,5.09,5.09V213a0,0,0,0,1,0,0H127.32a0,0,0,0,1,0,0V77.37A5.09,5.09,0,0,1,132.41,72.28Z" style="fill:#fff"></path><path d="M314.89,242.05c0,.07-32,.13-71.37.13s-71.38-.06-71.38-.13,32-.14,71.38-.14S314.89,242,314.89,242.05Z" style="fill:#263238"></path><path d="M285.82,122.8c.09.11-13.24,11-29.76,24.4s-30,24.12-30.1,24,13.24-11,29.77-24.4S285.73,122.69,285.82,122.8Z" style="fill:#263238"></path><path d="M285.92,107.88c.1.11-17.68,15-39.69,33.29s-39.94,33-40,32.9,17.67-15,39.7-33.3S285.83,107.77,285.92,107.88Z" style="fill:#263238"></path><path d="M356.64,240.64c0,.15-50.27.26-112.27.26s-112.29-.11-112.29-.26,50.27-.26,112.29-.26S356.64,240.5,356.64,240.64Z" style="fill:#fafafa"></path></g><g id="freepik--Character--inject-34"><path d="M405.43,103.67c-7,1.12-14.53,6.28-17.26,12.8s-2.44,14.92-2.32,22c2.16-.44,3.52.58,5.71.43a5.34,5.34,0,0,0,3.5-2.26,36.12,36.12,0,0,0,4.86-8.8q4.79-11,9.38-22" style="fill:#263238"></path><path d="M394.85,114.29c-11,7.1-8.19,20.25-10.32,23.34-.85,1.24-1.89,2.48-2,3.92s1,3,1.06,4.63c.05,2.2-1.93,4-3.21,5.87a10.33,10.33,0,0,0-1.38,8.7,2.45,2.45,0,0,0,1.09,1.57,3.41,3.41,0,0,0,1.47.28q15.62.72,31.27.31c2.38-.06,4.88-.17,6.89-1.27,2.74-1.51,3.86-4.44,4.79-7.14l2.92-8.56a32.91,32.91,0,0,0,1.56-5.63,58.13,58.13,0,0,0,.15-8,71.28,71.28,0,0,0,.12-7.45,10.84,10.84,0,0,0-2.93-6.87" style="fill:#263238"></path><path d="M426.64,125a17.51,17.51,0,0,0-17.88-17.76,18,18,0,0,0-17.6,17.17c-.4,8.18-.61,16.41-.27,19.35,1,8.88,6.7,11.79,9,12.61a11,11,0,0,0,2.44.33h0a.07.07,0,0,1,.06.07l-1,10.42c-.22,6.78,4.21,12.35,11.11,12.62s11.72-5.43,12.07-12.23Z" style="fill:#ffbe9d"></path><path d="M395.41,129.09a1.42,1.42,0,0,0,1.33,1.48,1.38,1.38,0,0,0,1.55-1.22,1.43,1.43,0,0,0-1.33-1.49A1.39,1.39,0,0,0,395.41,129.09Z" style="fill:#263238"></path><path d="M393.4,126.27c.12.2,1.36,0,2.83.44s2.37,1.44,2.58,1.36,0-.35-.38-.78a4.82,4.82,0,0,0-2-1.25,4.49,4.49,0,0,0-2.31-.18C393.57,126,393.34,126.18,393.4,126.27Z" style="fill:#263238"></path><path d="M410.75,129.43a1.42,1.42,0,0,0,1.33,1.48,1.39,1.39,0,0,0,1.55-1.22,1.43,1.43,0,0,0-1.33-1.49A1.39,1.39,0,0,0,410.75,129.43Z" style="fill:#263238"></path><path d="M409,128.63c.22.08,1.2-.79,2.82-1.22s3-.21,3.12-.39-.19-.26-.79-.37a5.74,5.74,0,0,0-2.54.15,5.31,5.31,0,0,0-2.2,1.13C409,128.31,408.93,128.59,409,128.63Z" style="fill:#263238"></path><path d="M402.64,138.57a10.62,10.62,0,0,0-2.51-.54c-.39-.06-.76-.15-.82-.42a1.94,1.94,0,0,1,.32-1.15l1.3-2.92c1.82-4.17,3.15-7.61,3-7.68s-1.78,3.26-3.6,7.43c-.44,1-.86,2-1.25,2.94a2.28,2.28,0,0,0-.28,1.53,1,1,0,0,0,.63.59,2.64,2.64,0,0,0,.67.12A10.27,10.27,0,0,0,402.64,138.57Z" style="fill:#263238"></path><path d="M402.35,156.68s6,.71,13.7-3.44c0,0-2.71,7.72-13.95,6.24Z" style="fill:#eb996e"></path><path d="M403.14,142.28a2.86,2.86,0,0,1,2.56-.92,2.49,2.49,0,0,1,1.72,1,1.56,1.56,0,0,1,.05,1.82,1.89,1.89,0,0,1-2.06.43,5.85,5.85,0,0,1-1.94-1.24,1.91,1.91,0,0,1-.43-.47.53.53,0,0,1,0-.57" style="fill:#eb996e"></path><path d="M407.18,139.81c-.26,0-.33,1.63-1.83,2.75s-3.29.87-3.31,1.1.39.34,1.15.39a4.24,4.24,0,0,0,2.75-.82,3.61,3.61,0,0,0,1.43-2.32C407.46,140.22,407.29,139.8,407.18,139.81Z" style="fill:#263238"></path><path d="M408.6,122.58c.19.4,1.72.07,3.56.14s3.34.43,3.56,0c.09-.19-.2-.56-.82-.91a6,6,0,0,0-2.69-.69,6.11,6.11,0,0,0-2.73.55C408.83,122,408.52,122.39,408.6,122.58Z" style="fill:#263238"></path><path d="M393.82,121.49c.26.36,1.34,0,2.63.07s2.37.33,2.64,0c.12-.18,0-.53-.5-.88a3.75,3.75,0,0,0-2.12-.65,3.67,3.67,0,0,0-2.13.62C393.87,121,393.7,121.32,393.82,121.49Z" style="fill:#263238"></path><path d="M405.15,102.86A9.41,9.41,0,0,0,409.53,115c1.89,1,4.31,1.56,5.25,3.48.74,1.49.32,3.41,1.26,4.79s2.63,1.64,3.9,2.57c1.74,1.27,2.43,3.54,2.62,5.68A59.85,59.85,0,0,0,423,138c.43,2.1,1.69,4.24,3.74,4.87,1.3-6.09,2.48-12.27,2.15-18.48s-2.34-12.54-6.67-17-11.22-6.71-17-4.5" style="fill:#263238"></path><path d="M411.35,102.06c7.48.28,15.82,5.37,18.37,12.41,1.29,3.54,1.59,7.62,4.07,10.46,1.57,1.79,3.86,2.91,5.14,4.91,2.74,4.29-.41,10.18,1.3,15,.76,2.15,2.42,3.83,3.71,5.7s2.25,4.29,1.38,6.39a5.68,5.68,0,0,1-3.52,3,16.76,16.76,0,0,1-4.69.66L413,161.62a6.84,6.84,0,0,1,.45-5.56c1.6-2.55,5.55-4.89,4.67-8.55s-2.67-3.2-2.73-7,2.58-7.44,2.14-10.74-1.52-2.54-2.91-7.74-4.29-6.64-4.29-6.64l2.27-12.47" style="fill:#263238"></path><path d="M384,140.22c.87-1.31,1.77-2.81,1.49-4.36-.2-1.08-1-2-1.28-3a5.24,5.24,0,0,1,.39-4.05c.51-1.29,1.2-2.5,1.61-3.82.33-1,.47-2.17.9-3.18a3.38,3.38,0,0,1,2.33-2.16c.76,4.91-1.14,9.83-1.4,14.79a8.44,8.44,0,0,1-.5,3.21,2.35,2.35,0,0,1-2.61,1.46" style="fill:#263238"></path><path d="M394.29,152.34s-.09.35-.6.65a4.36,4.36,0,0,1-2.36.45,6.05,6.05,0,0,1-3.34-1.22,7.16,7.16,0,0,1-2.54-3.54,6.31,6.31,0,0,1,.2-4.35,7.08,7.08,0,0,1,2.18-2.82,6.09,6.09,0,0,1,2.13-1.07,1.93,1.93,0,0,1,.87-.12,9.26,9.26,0,0,0-2.77,1.48,6.89,6.89,0,0,0-2,2.71,5.89,5.89,0,0,0-.15,4,6.8,6.8,0,0,0,2.33,3.31,5.91,5.91,0,0,0,3.08,1.25,4.57,4.57,0,0,0,2.23-.27C394.08,152.59,394.24,152.31,394.29,152.34Z" style="fill:#fff"></path><path d="M393,124.15a9.08,9.08,0,0,1,1.58-.08l4.29,0h2.18a1.13,1.13,0,0,1,.85.39,1.2,1.2,0,0,1,.27.91l-.06.85a16,16,0,0,1-.22,1.76,9.61,9.61,0,0,1-4,6.65,6.23,6.23,0,0,1-4,.92,5,5,0,0,1-3.32-1.95,7.31,7.31,0,0,1-1.26-3.24,18.94,18.94,0,0,1-.23-3,3.65,3.65,0,0,1,.69-2.41,2.63,2.63,0,0,1,1.7-.84,7.11,7.11,0,0,1,1.18,0,1.1,1.1,0,0,1,.4.06s-.57,0-1.55.17a2.51,2.51,0,0,0-1.51.82,3.37,3.37,0,0,0-.54,2.22,19.53,19.53,0,0,0,.28,2.92,7,7,0,0,0,1.22,3,4.54,4.54,0,0,0,3,1.73,5.72,5.72,0,0,0,3.69-.86,7.8,7.8,0,0,0,2.62-2.83,11.41,11.41,0,0,0,1.2-3.46c.11-.58.18-1.15.24-1.71l.06-.83a.73.73,0,0,0-.15-.61.67.67,0,0,0-.53-.25l-.75,0-1.43,0-4.29-.15A8.29,8.29,0,0,1,393,124.15Z" style="fill:#fff"></path><path d="M414.68,124.15a8.29,8.29,0,0,1-1.57.12l-4.29.15-1.42,0-.76,0a.69.69,0,0,0-.53.25.76.76,0,0,0-.15.61c0,.27,0,.55.07.83a15,15,0,0,0,.24,1.71,10.89,10.89,0,0,0,1.2,3.46,7.71,7.71,0,0,0,2.62,2.83,5.68,5.68,0,0,0,3.68.86,4.54,4.54,0,0,0,3-1.73,7,7,0,0,0,1.22-3,19.61,19.61,0,0,0,.29-2.92,3.43,3.43,0,0,0-.55-2.22,2.49,2.49,0,0,0-1.51-.82c-1-.16-1.55-.12-1.55-.17a1.13,1.13,0,0,1,.41-.06,7.14,7.14,0,0,1,1.18,0,2.63,2.63,0,0,1,1.7.84,3.59,3.59,0,0,1,.68,2.41,18.86,18.86,0,0,1-.22,3,7.33,7.33,0,0,1-1.27,3.24,5,5,0,0,1-3.32,1.95,6.25,6.25,0,0,1-4-.92,9.65,9.65,0,0,1-4-6.65c-.1-.6-.17-1.19-.22-1.76l-.05-.85a1.19,1.19,0,0,1,.26-.91,1.15,1.15,0,0,1,.85-.39h2.18l4.29,0A9,9,0,0,1,414.68,124.15Z" style="fill:#fff"></path><path d="M406.87,124.28a16.92,16.92,0,0,1-5.91,0,16.92,16.92,0,0,1,5.91,0Z" style="fill:#fff"></path><path d="M408.4,131.68c-.11.09-.87-.67-1.39-1.87a3.57,3.57,0,0,1-.44-2.29c.15,0,.41,1,.92,2.08S408.52,131.59,408.4,131.68Z" style="fill:#fff"></path><path d="M390.86,131.67a3.61,3.61,0,0,1-1-2.35,5.67,5.67,0,0,1,0-1.74l.38,0c-.13.5-.25.81-.33.79s-.09-.33-.05-.85l.39,0a12.2,12.2,0,0,0,.14,1.64C390.53,130.58,391,131.6,390.86,131.67Z" style="fill:#fff"></path><path d="M428.75,114.31a2.83,2.83,0,0,0-2.71-2.46,16.51,16.51,0,0,0-4.36.56,18.37,18.37,0,0,1-5.52.11,13.33,13.33,0,0,1-5.22-1.83,11.12,11.12,0,0,1-3.29-3.11,9.09,9.09,0,0,1-1.32-2.74,5.9,5.9,0,0,1-.16-.81c0-.19,0-.29,0-.29a12.63,12.63,0,0,0,1.79,3.63,11.5,11.5,0,0,0,3.24,2.91,13.37,13.37,0,0,0,5,1.72,19.27,19.27,0,0,0,5.38-.06,14.78,14.78,0,0,1,4.48-.45,3.32,3.32,0,0,1,2.5,1.71,2,2,0,0,1,.2.82C428.79,114.21,428.77,114.31,428.75,114.31Z" style="fill:#455a64"></path><path d="M430.29,116.8a4.45,4.45,0,0,1-1.09.58,15.06,15.06,0,0,1-3.23,1A16.81,16.81,0,0,1,407.36,109a14.76,14.76,0,0,1-1.11-3.2,4.63,4.63,0,0,1-.18-1.23,28.23,28.23,0,0,0,1.62,4.26A17,17,0,0,0,425.9,118,29.64,29.64,0,0,0,430.29,116.8Z" style="fill:#455a64"></path><polygon points="388.46 165.25 402.76 163.09 423.72 163.09 440.61 171.4 404.39 213.34 388.46 165.25" style="fill:#ffbe9d"></polygon><path d="M437.5,169.87s-30.87,35.8-31.42,37.72-17.62-42.34-17.62-42.34l-4,.67c-3.84.56-9.87.56-16.44,17.55s-9.87,28.23-9.87,28.23l19,2.35s2.27,7.8,4.49,13.12l-4.31,19s50.13,6.61,55.89,2.5l1.09-42.24s3.29-13.11,6-17.5,4.28-13.46,9.21-13.18Z" style="fill:#460B42"></path><path d="M448.48,175.22c-3.25-1.58-10.5,1.77-13,9.71s-9.17,30.17-9.17,30.17l21.3,15.62s3.58-23,5.34-28.32,3-9.53,3-15S451.72,176.81,448.48,175.22Z" style="fill:#460B42"></path><path d="M406.13,207.39a31.91,31.91,0,0,1,.11-5.87,33,33,0,0,1,.63-5.83,34.06,34.06,0,0,1-.11,5.86A34.42,34.42,0,0,1,406.13,207.39Z" style="fill:#eb996e"></path><path d="M415.12,173.74c.09,0-.2,1.13-.42,2.95a27,27,0,0,0,1.94,14c.71,1.69,1.28,2.68,1.21,2.73s-.2-.22-.49-.65a15.71,15.71,0,0,1-1.06-1.93,24,24,0,0,1-2-14.19,16.76,16.76,0,0,1,.5-2.15A2.46,2.46,0,0,1,415.12,173.74Z" style="fill:#263238"></path><path d="M415.18,190.49s-.26-.11-.65-.41a12.47,12.47,0,0,1-1.55-1.39,16.06,16.06,0,0,1-3.54-5.87l-.25-.72.63.41h0a12.75,12.75,0,0,1,4.58,5.11,10.54,10.54,0,0,1,.73,2c.12.48.16.75.12.76s-.35-1-1.18-2.54a13.43,13.43,0,0,0-4.53-4.84h0l.38-.3a17.59,17.59,0,0,0,3.33,5.79C414.38,189.75,415.23,190.42,415.18,190.49Z" style="fill:#263238"></path><path d="M416.05,184.81a16.17,16.17,0,0,1,.6-2.43c.41-1.49.92-3.58,1.32-5.93l.38.27L418,177a5.23,5.23,0,0,0-1.91,2.71,7.88,7.88,0,0,0-.35,2.78c.07,1.62.33,2.62.24,2.64a2,2,0,0,1-.25-.68,9.8,9.8,0,0,1-.36-1.94,7.76,7.76,0,0,1,.26-2.94,5.63,5.63,0,0,1,2.07-3c.14-.1.29-.18.43-.27l.48-.28-.09.56a42.78,42.78,0,0,1-1.49,5.94A10.2,10.2,0,0,1,416.05,184.81Z" style="fill:#263238"></path><path d="M414.91,173a9.05,9.05,0,0,0-1.19-.3,2.54,2.54,0,0,0-1.23.2c-.43.19-.84.57-.73,1s.65.38,1.13.27a5.53,5.53,0,0,0,1.25-.42c.68-.33,1.05-.66,1.1-.6s-.23.47-.92.92a4.63,4.63,0,0,1-1.32.57,2.76,2.76,0,0,1-.9.1,1,1,0,0,1-.85-.72,1.16,1.16,0,0,1,.29-1,2.12,2.12,0,0,1,.76-.51,2.59,2.59,0,0,1,1.48-.12C414.62,172.5,415,173,414.91,173Z" style="fill:#263238"></path><path d="M415.31,172.89a4.7,4.7,0,0,1-.21-1.42c-.05-.43-.11-.95-.2-1.51a1.57,1.57,0,0,0-.26-.72.49.49,0,0,0-.6-.1c-.45.2-.56.87-.45,1.36a3.18,3.18,0,0,0,.65,1.27c.53.67.94,1,.89,1.11s-.53-.22-1.17-.87a3.27,3.27,0,0,1-.84-1.4,2.23,2.23,0,0,1,0-1,1.34,1.34,0,0,1,.72-.92,1,1,0,0,1,1.2.25,1.84,1.84,0,0,1,.34,1,13.45,13.45,0,0,1,.1,1.56A3.36,3.36,0,0,1,415.31,172.89Z" style="fill:#263238"></path><path d="M415.8,172.53a10.64,10.64,0,0,1,1.4-.41,2.08,2.08,0,0,0,1.13-.83,1.13,1.13,0,0,0-.08-1.45,1.26,1.26,0,0,0-1.49.15,2.21,2.21,0,0,0-.7,1.23c-.18.86-.19,1.44-.28,1.43a3,3,0,0,1-.08-1.5,2.43,2.43,0,0,1,.75-1.53,2.1,2.1,0,0,1,1-.46,1.42,1.42,0,0,1,1.16.27,1.38,1.38,0,0,1,.5,1.09,2,2,0,0,1-.33,1,2.29,2.29,0,0,1-1.43.93A2.74,2.74,0,0,1,415.8,172.53Z" style="fill:#263238"></path><path d="M415.57,173.33c0-.05.42-.2,1.17-.11a1.72,1.72,0,0,1,1.16.7,1.31,1.31,0,0,1,.23.85,1.2,1.2,0,0,1-.49.82,1.36,1.36,0,0,1-1.69-.05,1.7,1.7,0,0,1-.64-1.2c0-.77.26-1.16.31-1.13s-.07.45.05,1.08a1.45,1.45,0,0,0,.57.87.9.9,0,0,0,1.09,0,.71.71,0,0,0,.17-1,1.47,1.47,0,0,0-.85-.6C416,173.41,415.57,173.42,415.57,173.33Z" style="fill:#263238"></path><path d="M409.93,180c0,.06-.34-.12-.85-.12a1.63,1.63,0,0,0-.82.19c-.28.14-.51.4-.44.63s.37.2.71.1a3.36,3.36,0,0,0,.85-.31c.47-.24.73-.46.79-.41s-.12.37-.59.72a2.93,2.93,0,0,1-.92.46,1.8,1.8,0,0,1-.65.11.77.77,0,0,1-.69-.53.89.89,0,0,1,.19-.81,1.58,1.58,0,0,1,.55-.4,1.93,1.93,0,0,1,1.06-.12C409.73,179.67,410,180,409.93,180Z" style="fill:#263238"></path><path d="M410.2,180c-.07,0-.17-.38-.28-1-.06-.3-.11-.65-.17-1a1.05,1.05,0,0,0-.18-.45.26.26,0,0,0-.33,0c-.26.12-.33.56-.24.88a2.17,2.17,0,0,0,.46.85c.38.46.67.73.62.79s-.4-.11-.89-.53a2.3,2.3,0,0,1-.65-1,1.56,1.56,0,0,1-.05-.75A1,1,0,0,1,409,177a.78.78,0,0,1,.93.15,1.43,1.43,0,0,1,.29.71c0,.42,0,.79,0,1.11C410.3,179.58,410.27,180,410.2,180Z" style="fill:#263238"></path><path d="M410.54,179.7c0-.09.39-.16.95-.39a1.44,1.44,0,0,0,.72-.6.71.71,0,0,0-.09-.91.8.8,0,0,0-.94.14,1.55,1.55,0,0,0-.45.84c-.11.59-.12,1-.2,1s-.19-.38-.16-1.05a1.72,1.72,0,0,1,.49-1.15,1.25,1.25,0,0,1,1.57-.2,1,1,0,0,1,.41.81,1.47,1.47,0,0,1-.21.76,1.7,1.7,0,0,1-1,.71C410.94,179.82,410.55,179.75,410.54,179.7Z" style="fill:#263238"></path><path d="M410.4,180.26s.28-.2.82-.17a1.27,1.27,0,0,1,.89.47.93.93,0,0,1,.2.63.89.89,0,0,1-.34.65,1,1,0,0,1-1.28,0,1.25,1.25,0,0,1-.49-.87c-.05-.57.18-.84.23-.82s0,.34.13.75.66.88,1.08.52a.43.43,0,0,0,.08-.6,1,1,0,0,0-.56-.38C410.73,180.34,410.4,180.35,410.4,180.26Z" style="fill:#263238"></path><path d="M419,185.73c-.05.07-.35-.11-.85-.12a1.81,1.81,0,0,0-.82.19c-.29.14-.52.4-.44.63s.37.2.71.1a3.51,3.51,0,0,0,.85-.31c.46-.23.72-.46.78-.4s-.12.36-.59.72a3.15,3.15,0,0,1-.92.46,2,2,0,0,1-.64.1.75.75,0,0,1-.69-.53.88.88,0,0,1,.18-.8,1.43,1.43,0,0,1,.55-.4,1.89,1.89,0,0,1,1.07-.13C418.76,185.36,419,185.69,419,185.73Z" style="fill:#263238"></path><path d="M419.24,185.65c-.07,0-.18-.37-.29-1-.05-.3-.11-.66-.16-1.06a1,1,0,0,0-.19-.45.26.26,0,0,0-.33,0c-.25.11-.32.55-.24.87a2.17,2.17,0,0,0,.47.86c.38.45.66.72.61.78s-.4-.1-.88-.53a2.25,2.25,0,0,1-.66-1,1.55,1.55,0,0,1-.05-.75,1,1,0,0,1,.52-.72.79.79,0,0,1,.94.15,1.4,1.4,0,0,1,.28.72c0,.41.05.79.06,1.1C419.34,185.27,419.31,185.65,419.24,185.65Z" style="fill:#263238"></path><path d="M419.58,185.39c0-.08.39-.16.94-.38a1.48,1.48,0,0,0,.73-.61.73.73,0,0,0-.09-.91.83.83,0,0,0-1,.14,1.6,1.6,0,0,0-.44.84c-.12.59-.12,1-.21,1s-.18-.37-.15-1.05a1.73,1.73,0,0,1,.48-1.14,1.26,1.26,0,0,1,1.57-.21,1,1,0,0,1,.41.81,1.35,1.35,0,0,1-.21.76,1.64,1.64,0,0,1-1,.71C420,185.51,419.59,185.45,419.58,185.39Z" style="fill:#263238"></path><path d="M419.44,186c0-.06.28-.2.82-.17a1.25,1.25,0,0,1,.88.46,1,1,0,0,1,.21.64.87.87,0,0,1-.35.64,1,1,0,0,1-1.27,0,1.24,1.24,0,0,1-.5-.87c0-.56.18-.84.23-.81s0,.33.13.74.66.88,1.09.52a.43.43,0,0,0,.07-.6,1,1,0,0,0-.56-.38C419.76,186,419.44,186,419.44,186Z" style="fill:#263238"></path><path d="M444.91,175.24c.13.07-4.42,8.21-10.16,18.17s-10.49,18-10.61,17.91,4.42-8.21,10.16-18.17S444.79,175.17,444.91,175.24Z" style="fill:#263238"></path><path d="M447.64,230.72a4.47,4.47,0,0,1-1-.64l-2.56-1.82-8.44-6c-3.28-2.38-6.24-4.56-8.35-6.18-1.05-.81-1.89-1.48-2.46-2a4.66,4.66,0,0,1-.84-.8,5.62,5.62,0,0,1,1,.64l2.56,1.82,8.44,6.06c3.28,2.37,6.24,4.55,8.35,6.17,1.05.81,1.9,1.48,2.47,2A5.8,5.8,0,0,1,447.64,230.72Z" style="fill:#263238"></path><path d="M423.42,223.06a6.06,6.06,0,0,1-2.14.26,14.76,14.76,0,0,1-5.12-.88,15.39,15.39,0,0,1-4.52-2.55,6,6,0,0,1-1.48-1.56,19.25,19.25,0,0,0,13.26,4.73Z" style="fill:#263238"></path><path d="M395.59,204.64c-.61-.64-1.69-.25-2.46.19a45,45,0,0,0-14.62,13.39l.1.36c5.76-3.26,11.42-6.64,16.2-11.22C395.57,206.63,396.32,205.4,395.59,204.64Z" style="fill:#fafafa"></path><path d="M377.81,216.09A59.83,59.83,0,0,0,381.12,197c0-.71-.16-1.61-.86-1.74a1,1,0,0,0-1,.61,3,3,0,0,0-.25,1.26c-.33,6.27-1,12.66-1.17,18.94" style="fill:#fafafa"></path><path d="M395.47,222.68c-1.8-1.12-4.08-1-6.2-.93a47.1,47.1,0,0,1-9.79-.56l.14.55a20.3,20.3,0,0,0,15.88,2.36.89.89,0,0,0,.47-.22C396.3,223.51,395.89,222.94,395.47,222.68Z" style="fill:#fafafa"></path><path d="M380.54,224.25a3.31,3.31,0,0,1-.44-.88c-.26-.57-.6-1.42-1-2.47a72.16,72.16,0,0,1-2.58-8.41,65.23,65.23,0,0,1-1.43-8.68c-.1-1.12-.16-2-.18-2.66a3.18,3.18,0,0,1,0-1,35,35,0,0,1,.52,3.6c.3,2.22.78,5.28,1.57,8.6s1.72,6.28,2.41,8.41A30.27,30.27,0,0,1,380.54,224.25Z" style="fill:#263238"></path><path d="M449.06,220c-3.23-6.54-6.54-13.36-6.56-20.65,0-1.05.23-2.33,1.22-2.66a1.84,1.84,0,0,1,2,.85,5.45,5.45,0,0,1,.65,2.22c1,6.85,1.94,13.36,2.7,20.24" style="fill:#fafafa"></path><path d="M431,199.24a11.16,11.16,0,0,1-1.68-5.85,1.54,1.54,0,0,1,.37-1.29,1.08,1.08,0,0,1,1.29.05,2.66,2.66,0,0,1,.8,1.12,5,5,0,0,0,.67,1.22c.28.32.69.61.7,1a1.25,1.25,0,0,1-.27.71c-.63,1-1.26,2-1.88,3" style="fill:#fafafa"></path><path d="M427.58,205.1a8.08,8.08,0,0,0-6.61,1,1.3,1.3,0,0,0-.67.84,1,1,0,0,0,.54.9,2.67,2.67,0,0,0,1.08.25l3.22.34a.93.93,0,0,0,.47,0A.87.87,0,0,0,426,208c.48-1,1.13-1.62,1.61-2.62" style="fill:#fafafa"></path><path d="M372.13,190.53a41.37,41.37,0,0,1-4.63-5.92l-.65,1.84c1,1.72,2,3.41,3.1,5.07a3.56,3.56,0,0,0,1.27,1.34,1.24,1.24,0,0,0,1.64-.39C373.19,191.8,372.63,191.07,372.13,190.53Z" style="fill:#fafafa"></path><path d="M368.77,182c1.56,1.26,3.93.79,5.68,1.77l.16-2.45a28.57,28.57,0,0,0-5.08-1.34,9.82,9.82,0,0,0-.79,2.12" style="fill:#fafafa"></path><path d="M390.51,437.7,392,457.51s-19.66,6.76-19.74,10.45l38.56-.13-1.11-31Z" style="fill:#460B42"></path><g style="opacity:0.30000000000000004"><path d="M390.51,437.7,392,457.51s-19.66,6.76-19.74,10.45l38.56-.13-1.11-31Z"></path></g><path d="M403.87,455.36a1.57,1.57,0,0,1,1.17,1.75,1.52,1.52,0,0,1-1.73,1.16,1.65,1.65,0,0,1-1.22-1.86,1.57,1.57,0,0,1,1.93-1" style="fill:#263238"></path><path d="M410.85,467.83l-.11-3.12-37.23,1.42a2.67,2.67,0,0,0-1.41,2.11Z" style="fill:#263238"></path><path d="M391.4,457.34c0,.19,1,.24,1.91.8s1.47,1.34,1.64,1.26-.15-1.16-1.31-1.82S391.35,457.17,391.4,457.34Z" style="fill:#263238"></path><path d="M387.43,459.18c0,.18.79.47,1.46,1.24s.89,1.6,1.08,1.59.26-1.09-.59-2S387.42,459,387.43,459.18Z" style="fill:#263238"></path><path d="M385.33,464.11c.17,0,.4-.92-.13-1.93s-1.42-1.38-1.49-1.22.49.68.91,1.52S385.14,464.1,385.33,464.11Z" style="fill:#263238"></path><path d="M391.55,452.79c.09.17.94-.13,2-.1s1.91.33,2,.17-.74-.81-2-.82S391.45,452.64,391.55,452.79Z" style="fill:#263238"></path><path d="M391.32,448.79a3.77,3.77,0,0,0,1.93-.09,8.76,8.76,0,0,0,2-.71,7.55,7.55,0,0,0,1.08-.63,2.17,2.17,0,0,0,.57-.48.8.8,0,0,0,0-1,1,1,0,0,0-.84-.4,2.9,2.9,0,0,0-.72.13,6.89,6.89,0,0,0-1.18.46,7.21,7.21,0,0,0-1.73,1.24c-.86.87-1.14,1.58-1.07,1.62s.5-.55,1.38-1.27a7.34,7.34,0,0,1,1.68-1,7,7,0,0,1,1.09-.39c.41-.12.75-.14.87,0s0,.09,0,.22a1.89,1.89,0,0,1-.41.34,9.18,9.18,0,0,1-1,.63,11.22,11.22,0,0,1-1.83.79A11.3,11.3,0,0,0,391.32,448.79Z" style="fill:#263238"></path><path d="M391.57,449.05a3.09,3.09,0,0,0,.44-1.89,6.23,6.23,0,0,0-.89-3.25,1.59,1.59,0,0,0-1.27-.92.91.91,0,0,0-.79.57,2.55,2.55,0,0,0-.16.71,4,4,0,0,0,.05,1.3,4.46,4.46,0,0,0,.9,2c.8,1,1.59,1.16,1.6,1.1s-.61-.44-1.22-1.37a4.47,4.47,0,0,1-.69-1.79,4.19,4.19,0,0,1,0-1.12c.05-.41.19-.75.34-.71s.53.28.7.6a7.11,7.11,0,0,1,.52,1,7,7,0,0,1,.45,1.91C391.64,448.31,391.47,449,391.57,449.05Z" style="fill:#263238"></path><path d="M403,437.67l1.52,19.81s-19.66,6.76-19.73,10.44l38.55-.13-1.11-31Z" style="fill:#460B42"></path><path d="M416.38,455.32a1.58,1.58,0,0,1,1.16,1.75,1.52,1.52,0,0,1-1.73,1.17,1.67,1.67,0,0,1-1.22-1.86,1.58,1.58,0,0,1,1.93-1" style="fill:#263238"></path><path d="M423.35,467.79l-.11-3.12L386,466.1a2.65,2.65,0,0,0-1.42,2.11Z" style="fill:#263238"></path><path d="M403.9,457.31c0,.18,1,.23,1.91.8s1.48,1.34,1.65,1.25-.16-1.15-1.32-1.82S403.85,457.14,403.9,457.31Z" style="fill:#263238"></path><path d="M399.93,459.14c0,.19.79.47,1.46,1.24s.89,1.61,1.08,1.59.26-1.08-.59-2S399.93,459,399.93,459.14Z" style="fill:#263238"></path><path d="M397.83,464.07c.18,0,.4-.92-.13-1.93s-1.42-1.38-1.49-1.22.49.69.91,1.52S397.65,464.06,397.83,464.07Z" style="fill:#263238"></path><path d="M404.05,452.75c.09.17.94-.12,2-.1s1.91.34,2,.17-.73-.8-2-.82S404,452.61,404.05,452.75Z" style="fill:#263238"></path><path d="M403.82,448.75a3.64,3.64,0,0,0,1.93-.09,8.84,8.84,0,0,0,2-.7,10.18,10.18,0,0,0,1.09-.63,2.88,2.88,0,0,0,.56-.48.83.83,0,0,0,.05-1,1,1,0,0,0-.85-.39,2.5,2.5,0,0,0-.72.13,6.89,6.89,0,0,0-1.18.46,6.7,6.7,0,0,0-1.73,1.24c-.86.86-1.14,1.58-1.07,1.61s.5-.55,1.38-1.27a8,8,0,0,1,1.68-1,7.11,7.11,0,0,1,1.1-.38c.4-.13.75-.15.86,0s0,.1,0,.22a1.89,1.89,0,0,1-.41.35,10.86,10.86,0,0,1-1,.62,10.1,10.1,0,0,1-1.83.79A14.57,14.57,0,0,0,403.82,448.75Z" style="fill:#263238"></path><path d="M404.08,449a3.13,3.13,0,0,0,.43-1.88,6.36,6.36,0,0,0-.35-2.11,6,6,0,0,0-.54-1.15,1.59,1.59,0,0,0-1.27-.92.89.89,0,0,0-.78.57,2.33,2.33,0,0,0-.17.72,4,4,0,0,0,.05,1.3,4.42,4.42,0,0,0,.9,1.95c.8,1,1.59,1.16,1.61,1.1s-.62-.43-1.23-1.37a4.56,4.56,0,0,1-.69-1.79,4.11,4.11,0,0,1,0-1.11c.05-.41.19-.75.34-.72s.53.29.7.61a5.46,5.46,0,0,1,.52,1,7,7,0,0,1,.46,1.91C404.15,448.27,404,449,404.08,449Z" style="fill:#263238"></path><path d="M377.32,246.19s-11.45,26-11.45,44.32S379,368.72,379,368.72s1.74,16.57,3.49,38.67a263.86,263.86,0,0,0,6.68,41h13.09l21.22.58s9-36.92,8.43-50.88S429,368.14,429,368.14s11.34-46.23,13.38-54.66,1.16-39.83,0-40.7l-9.12-24.09Z" style="fill:#263238"></path><path d="M402,304.27c.14,0,.26,32.18.26,71.86S402.1,448,402,448s-.26-32.18-.26-71.88S401.81,304.27,402,304.27Z" style="fill:#455a64"></path><path d="M397,291.06a10.08,10.08,0,0,1-.29-1.62c-.16-1-.33-2.57-.49-4.45a99.25,99.25,0,0,1,2-29.44c.42-1.85.79-3.33,1.1-4.35a10.81,10.81,0,0,1,.5-1.56,8.4,8.4,0,0,1-.31,1.61c-.24,1-.56,2.53-.93,4.38a114.53,114.53,0,0,0-2,29.33c.11,1.88.23,3.41.32,4.46A9.57,9.57,0,0,1,397,291.06Z" style="fill:#455a64"></path><path d="M440.42,272.39a2.7,2.7,0,0,1-.91.55,6.88,6.88,0,0,1-2.87.48,16.65,16.65,0,0,1-8.75-3.57,20.46,20.46,0,0,1-6.06-7.29,18.3,18.3,0,0,1-1.07-2.68,4.11,4.11,0,0,1-.22-1c.1,0,.47,1.44,1.62,3.55a21.74,21.74,0,0,0,6,7,17.23,17.23,0,0,0,8.46,3.62A8,8,0,0,0,440.42,272.39Z" style="fill:#455a64"></path><path d="M384,254.3a3.77,3.77,0,0,1-.22.94,19.19,19.19,0,0,1-.91,2.44,26.17,26.17,0,0,1-11.6,12.37,18.13,18.13,0,0,1-2.37,1.07,3,3,0,0,1-.92.27c0-.08,1.23-.58,3.12-1.66a28.86,28.86,0,0,0,11.43-12.21C383.49,255.57,383.91,254.28,384,254.3Z" style="fill:#455a64"></path><path d="M407.32,256.59c-.05,0-.06-.21-.17-.53a2.26,2.26,0,0,0-.85-1.14,2.13,2.13,0,0,0-1.95-.25,2.05,2.05,0,1,0,1.95,3.58,2.28,2.28,0,0,0,.85-1.13c.11-.33.12-.53.17-.53s.08.2,0,.58a2.24,2.24,0,0,1-.81,1.37,2.45,2.45,0,0,1-2.35.41,2.5,2.5,0,0,1,0-4.73,2.47,2.47,0,0,1,2.35.41,2.26,2.26,0,0,1,.81,1.38A1,1,0,0,1,407.32,256.59Z" style="fill:#455a64"></path><path d="M422.43,367.29a65.17,65.17,0,0,1-7,4.2,66.64,66.64,0,0,1-7.29,3.75,127.29,127.29,0,0,1,14.32-7.95Z" style="fill:#455a64"></path><path d="M377.09,214.06l-14.44-1.8-4.53,15.3-42.71-12.11a26.64,26.64,0,0,0-12.66-2.09l-5.84-.77s-2.75-2-4-1.66-2.31.66-1,2.1,4.19,2.45,7.38,3.92l-1.1,1h-4.07s-2.72-5.92-4-6.65a2.07,2.07,0,0,0-1.7-.29l1.24,4s-3.66-7-6.42-6.28c0,0-1.16-2.8-3.63-1.43l1,2.25s-1.65-.13-1.56.83c0,.4,5.72,11,5.72,11l11.13,3.74s15.31-1.32,15.42-1,37.33,15.42,43.39,17.18,11,3,12,2.09,12.42-22.91,12.42-22.91Z" style="fill:#ffbe9d"></path><path d="M332.22,224.79l10.72,6.14,10.85,2h14.85s31.86,12.31,40.14,14.16,18.42,5.28,21.43,3.45,15.1-21.5,15.1-21.5L429.77,217.6l-7,11.9-48.56-6s-4.43-4.29-9.57-4.72-17-1.43-17.14,0-.29,2.14,2.14,2.57,9.28,2,9.28,2l-8.42,1.15s-8.43-4-9.15-4-1.57,1-1.57,1-2.57-1.29-3.85-1.15a2.16,2.16,0,0,0-1.72,1.29,3.38,3.38,0,0,0-2.57,1.86l1.72.71Z" style="fill:#ffbe9d"></path><path d="M386,225h-.2l-.58,0-2.29-.25-8.68-1h-.05l0,0a19.85,19.85,0,0,0-6.78-4.06,17.85,17.85,0,0,0-4.58-.72c-1.63-.12-3.33-.25-5.09-.35s-3.59-.19-5.47-.2c-.94,0-1.89,0-2.84.1a5.46,5.46,0,0,0-1.37.27.55.55,0,0,0-.22.13s0,0,0,0l0,.18a5.85,5.85,0,0,0,0,.71c-.1,1,1,1.24,2,1.41l3,.65,6.28,1.35,1.41.3-1.43.19-8.43,1.15h-.08l-.07,0c-2.49-1.17-5.13-2.42-7.85-3.55-.25-.11-.5-.2-.75-.29s-.42-.17-.63-.1a3,3,0,0,0-1.17.88l-.13.14-.18-.08a12.91,12.91,0,0,0-2.91-1.06,2.15,2.15,0,0,0-1.38.1,2,2,0,0,0-.93,1l-.06.14-.14,0a3,3,0,0,0-2.37,1.69l-.14-.32,1.71.71.52.22-.5.25-1.14.57v-.45l10.7,6.16-.07,0,10.85,2h0l14.85.05h.06L380,237.09l3,1.18.77.31.26.12a.82.82,0,0,1-.28-.07l-.78-.27-3-1.1-11.33-4.19h.05l-14.85,0h0l-10.86-2h0l0,0L332.1,225l-.41-.23.42-.22,1.14-.57,0,.47-1.72-.72-.22-.09.08-.23a2.8,2.8,0,0,1,1.13-1.38,4.32,4.32,0,0,1,1.65-.65l-.21.17a2.42,2.42,0,0,1,1.19-1.25,2.67,2.67,0,0,1,1.69-.14,14,14,0,0,1,3.05,1.1l-.31.07a3.49,3.49,0,0,1,1.41-1,1.49,1.49,0,0,1,.95.1l.78.3c2.74,1.15,5.37,2.4,7.88,3.57l-.15,0,8.43-1.14,0,.5-6.26-1.36-3-.65a5.42,5.42,0,0,1-1.52-.46,1.53,1.53,0,0,1-.66-.58,1.73,1.73,0,0,1-.2-.84c0-.27,0-.52.05-.77l0-.19a.57.57,0,0,1,.14-.28,1,1,0,0,1,.4-.27,5.93,5.93,0,0,1,1.5-.29,28.25,28.25,0,0,1,2.89-.09c1.9,0,3.73.12,5.49.23s3.47.24,5.1.38a18.39,18.39,0,0,1,4.66.76,20,20,0,0,1,6.86,4.2l-.08,0,8.67,1.14,2.28.32.58.09C385.89,224.93,386,225,386,225Z" style="fill:#eb996e"></path><path d="M350.51,225.11a4.89,4.89,0,0,1-.72.11,20,20,0,0,0-1.93.51,23.16,23.16,0,0,1-2.92.77,8.29,8.29,0,0,1-3.66-.71,27.78,27.78,0,0,0-3.4-1.22,12.32,12.32,0,0,0-2.89-.44,8.76,8.76,0,0,0-2.64.47s.19-.2.63-.4a5.59,5.59,0,0,1,2-.43,15.51,15.51,0,0,1,6.49,1.53,8.23,8.23,0,0,0,3.43.72c1.05-.14,2-.47,2.87-.65a11.31,11.31,0,0,1,2-.35C350.25,225,350.52,225.08,350.51,225.11Z" style="fill:#eb996e"></path><path d="M343.07,225.69c-.09.15-2.23-1.4-5-2.88a7.44,7.44,0,0,0-3.85-.83c-1,.08-1.61.39-1.65.3a2.74,2.74,0,0,1,1.6-.66,6.8,6.8,0,0,1,4.13.73,26.05,26.05,0,0,1,3.51,2.21C342.63,225.2,343.12,225.64,343.07,225.69Z" style="fill:#eb996e"></path><path d="M347.07,225.31a5.56,5.56,0,0,1-1.89-.56,38.28,38.28,0,0,1-4.23-2.11c-.81-.45-1.56-.9-2.27-1.21a6.15,6.15,0,0,0-2-.55,6.81,6.81,0,0,0-1.89.19,2.57,2.57,0,0,1,1.91-.56,5.87,5.87,0,0,1,2.13.48,23.38,23.38,0,0,1,2.33,1.19c1.61.9,3.05,1.71,4.13,2.23A10.51,10.51,0,0,1,347.07,225.31Z" style="fill:#eb996e"></path><path d="M312.2,215.71s-.4,0-1.1,0a8.78,8.78,0,0,0-2.85.85c-1.15.52-2.42,1.39-4.05,2a11.61,11.61,0,0,1-5.57.33c-.8-.11-1.58-.27-2.33-.42s-1.47-.17-2.16-.25l-.16,0-.06-.15a11.07,11.07,0,0,0-.77-1.81l-.93-1.59-.82-1.41-.77-1.16a1.73,1.73,0,0,0-1.5-1c-.45-.07-.7,0-.7-.07a1.4,1.4,0,0,1,.72-.1,2.6,2.6,0,0,1,.86.17,1.29,1.29,0,0,1,.49.32c.15.16.24.32.38.49l.84,1.14.86,1.39,1,1.57a12.33,12.33,0,0,1,.84,1.88l-.22-.16c.71.07,1.47.14,2.23.24s1.52.29,2.3.4a11.27,11.27,0,0,0,5.34-.27c1.56-.54,2.86-1.37,4.06-1.87a7.84,7.84,0,0,1,3-.71A2.37,2.37,0,0,1,312.2,215.71Z" style="fill:#eb996e"></path><path d="M296.73,223.67a15.25,15.25,0,0,1-4.62-1.59,28.9,28.9,0,0,1-4.32-2.26,19.47,19.47,0,0,1,4.54,1.79A46.21,46.21,0,0,1,296.73,223.67Z" style="fill:#eb996e"></path><path d="M301.49,223.67a12.43,12.43,0,0,1-4.6-.88,12.76,12.76,0,0,1-4.21-2c.07-.14,1.95.75,4.38,1.55S301.51,223.52,301.49,223.67Z" style="fill:#eb996e"></path><path d="M288.43,211a22.64,22.64,0,0,1,1.65,4.49,22,22,0,0,1,1.16,4.65,22.16,22.16,0,0,1-1.66-4.49A22,22,0,0,1,288.43,211Z" style="fill:#eb996e"></path><path d="M287.79,219.82a35.49,35.49,0,0,1-2.54-5.43,34,34,0,0,1-2.06-5.62,34.52,34.52,0,0,1,2.54,5.42A34.71,34.71,0,0,1,287.79,219.82Z" style="fill:#eb996e"></path><path d="M285.38,220.18a47.93,47.93,0,0,1-3.12-6.34,47.75,47.75,0,0,1-2.64-6.54,47.39,47.39,0,0,1,3.12,6.33A48.14,48.14,0,0,1,285.38,220.18Z" style="fill:#eb996e"></path><path d="M303.93,213.3a13.9,13.9,0,0,0-2.84,1.92c-1.35,1.34-2.28,2.64-2.42,2.53a7.73,7.73,0,0,1,2.06-2.9,6.27,6.27,0,0,1,2.15-1.39C303.51,213.24,303.92,213.24,303.93,213.3Z" style="fill:#eb996e"></path><path d="M350.7,230.19a14.68,14.68,0,0,1-3.91.7,15.16,15.16,0,0,1-4,.18,15.84,15.84,0,0,1,3.92-.7A15.61,15.61,0,0,1,350.7,230.19Z" style="fill:#eb996e"></path><path d="M372,175a6.77,6.77,0,0,0,4.63-5.9A21.87,21.87,0,0,0,372,175" style="fill:#fafafa"></path></g></svg>